<svg width="621" height="431" viewBox="0 0 621 431" fill="none" xmlns="http://www.w3.org/2000/svg">
<path d="M597.672 424.815H63.7266C63.7266 424.815 106.61 281.892 267.602 199.005C428.594 116.119 591.319 136.273 589.73 225.972C588.286 300.485 547.136 326.883 539.339 359.385C534.863 378.12 541.072 398.416 555.077 410.338C562.441 416.441 582.222 422.118 597.672 424.815Z" fill="white"/>
<path d="M591.608 380.391C600.779 380.391 608.213 373.083 608.213 364.069C608.213 355.055 600.779 347.747 591.608 347.747C582.438 347.747 575.004 355.055 575.004 364.069C575.004 373.083 582.438 380.391 591.608 380.391Z" fill="#F3F3F3"/>
<path d="M77.3767 324.846C96.6394 314.544 103.759 290.843 93.2791 271.909C82.7991 252.974 58.6879 245.975 39.4251 256.277C20.1624 266.579 13.0426 290.279 23.5226 309.214C34.0027 328.149 58.1139 335.147 77.3767 324.846Z" fill="#F3F3F3"/>
<path d="M280.162 132.866C290.05 132.866 298.066 124.987 298.066 115.267C298.066 105.547 290.05 97.668 280.162 97.668C270.274 97.668 262.258 105.547 262.258 115.267C262.258 124.987 270.274 132.866 280.162 132.866Z" fill="#F3F3F3"/>
<path d="M312.072 0.730469H274.532C272.655 0.730469 271.066 2.29169 271.066 4.13677V20.7425C271.066 22.7295 272.655 24.1488 274.532 24.1488H291.281L302.687 32.0968V24.1488L312.217 24.0068C314.094 24.0068 315.682 22.4456 315.682 20.6005V4.2787C315.538 2.29169 314.094 0.730469 312.072 0.730469Z" stroke="#F2F2F2" stroke-width="0.4945" stroke-miterlimit="10"/>
<path d="M613.987 135.705C613.987 140.247 610.233 144.079 605.613 144.079C600.992 144.079 597.238 140.389 597.238 135.705C597.238 131.163 600.992 127.331 605.613 127.331C610.233 127.331 613.987 131.163 613.987 135.705Z" stroke="#F2F2F2" stroke-width="0.4945" stroke-miterlimit="10"/>
<path d="M100.542 133.576C100.542 138.118 96.7878 141.95 92.1674 141.95C87.547 141.95 83.793 138.26 83.793 133.576C83.793 129.034 87.547 125.202 92.1674 125.202C96.7878 125.202 100.542 128.892 100.542 133.576Z" stroke="#F2F2F2" stroke-width="0.4945" stroke-miterlimit="10"/>
<path d="M46.2539 24.4326H143.427" stroke="#F2F2F2" stroke-width="0.4945" stroke-miterlimit="10"/>
<path d="M612.974 199.289H559.117" stroke="#F2F2F2" stroke-width="0.4945" stroke-miterlimit="10"/>
<path d="M113.396 363.784H52.0312" stroke="#F2F2F2" stroke-width="0.4945" stroke-miterlimit="10"/>
<path d="M407.371 107.106C385.568 107.106 367.953 89.6483 367.953 68.359C367.953 46.9277 385.713 29.6123 407.371 29.6123C429.173 29.6123 446.789 47.0696 446.789 68.359C446.789 89.6483 429.173 107.106 407.371 107.106ZM407.371 49.6243C396.831 49.6243 388.312 57.9981 388.312 68.359C388.312 78.7198 396.831 87.0936 407.371 87.0936C417.911 87.0936 426.43 78.7198 426.43 68.359C426.43 57.9981 417.911 49.6243 407.371 49.6243Z" fill="#F2F2F2"/>
<path d="M418.92 39.5475H397.262V19.2517C397.262 17.6904 398.561 16.4131 400.149 16.4131H416.032C417.62 16.4131 418.92 17.6904 418.92 19.2517V39.5475Z" fill="#F2F2F2"/>
<path d="M416.032 120.66H400.149C398.561 120.66 397.262 119.382 397.262 117.821V97.5254H418.92V117.821C418.92 119.524 417.62 120.66 416.032 120.66Z" fill="#E5C03B"/>
<path d="M378.781 58.2109V79.5003H358.134C356.546 79.5003 355.246 78.2229 355.246 76.6617V61.0495C355.246 59.4883 356.546 58.2109 358.134 58.2109H378.781Z" fill="#F2F2F2"/>
<path d="M460.793 61.0495V76.6617C460.793 78.2229 459.493 79.5003 457.905 79.5003H437.258V58.2109H457.905C459.493 58.2109 460.793 59.4883 460.793 61.0495Z" fill="#F2F2F2"/>
<path d="M395.098 40.8964L379.793 55.9409L365.066 41.606C363.91 40.4706 363.91 38.6255 365.066 37.632L376.328 26.5615C377.483 25.4261 379.36 25.4261 380.371 26.5615L395.098 40.8964Z" fill="#F2F2F2"/>
<path d="M450.978 99.9387L439.716 111.009C438.561 112.145 436.684 112.145 435.673 111.009L421.09 96.6744L436.395 81.6299L450.978 95.9647C452.133 97.1002 452.133 98.9452 450.978 99.9387Z" fill="#E5C03B"/>
<path d="M436.395 56.0825L421.09 41.038L435.673 26.7031C436.828 25.5677 438.705 25.5677 439.716 26.7031L450.978 37.7736C452.133 38.909 452.133 40.7541 450.978 41.7476L436.395 56.0825Z" fill="#F2F2F2"/>
<path d="M376.328 111.009L365.066 99.9387C363.91 98.8033 363.91 96.9582 365.066 95.9647L379.649 81.6299L394.954 96.6744L380.371 111.009C379.216 112.145 377.483 112.145 376.328 111.009Z" fill="#E5C03B"/>
<path d="M368.817 424.53H484.76C499.632 424.53 511.616 412.75 511.616 398.131V94.8285C511.616 80.2098 499.632 68.4297 484.76 68.4297H368.817C353.945 68.4297 341.961 80.2098 341.961 94.8285V398.131C341.961 412.75 353.945 424.53 368.817 424.53Z" fill="#525252"/>
<path d="M342.829 424.53H458.772C473.644 424.53 485.628 412.75 485.628 398.131V94.8285C485.628 80.2098 473.644 68.4297 458.772 68.4297H342.829C327.957 68.4297 315.973 80.2098 315.973 94.8285V398.131C315.973 412.75 328.101 424.53 342.829 424.53Z" fill="#DEDEDE"/>
<path d="M342.685 416.582H458.917C469.168 416.582 477.398 408.492 477.398 398.415V96.248C477.398 86.171 469.168 78.0811 458.917 78.0811H342.685C332.433 78.0811 324.203 86.171 324.203 96.248V398.415C324.203 408.35 332.433 416.582 342.685 416.582Z" fill="white"/>
<path d="M361.31 87.022H434.081C436.825 87.022 439.135 84.8931 439.135 82.0545V74.1064H356.401V82.0545C356.257 84.8931 358.567 87.022 361.31 87.022Z" fill="#DEDEDE"/>
<path d="M373.148 78.0811H417.62" stroke="#312220" stroke-width="0.622" stroke-miterlimit="10" stroke-linecap="round" stroke-linejoin="round"/>
<path d="M443.9 126.621H349.615C348.46 126.621 347.594 125.77 347.594 124.634C347.594 123.499 348.46 122.647 349.615 122.647H443.9C445.055 122.647 445.922 123.499 445.922 124.634C446.066 125.628 445.055 126.621 443.9 126.621Z" fill="#DEDEDE"/>
<path d="M389.322 139.679H349.615C348.46 139.679 347.594 138.828 347.594 137.692C347.594 136.557 348.46 135.705 349.615 135.705H389.322C390.477 135.705 391.343 136.557 391.343 137.692C391.343 138.828 390.332 139.679 389.322 139.679Z" fill="#DEDEDE"/>
<path d="M443.9 358.108H349.615C348.46 358.108 347.594 357.256 347.594 356.121C347.594 354.985 348.46 354.134 349.615 354.134H443.9C445.055 354.134 445.922 354.985 445.922 356.121C446.066 357.256 445.055 358.108 443.9 358.108Z" fill="#DEDEDE"/>
<path d="M207.247 72.7853C207.247 72.7853 204.503 79.456 210.857 85.1331C219.664 93.0812 211.29 105.287 211.29 105.287L180.535 104.152L196.129 63.8438L207.247 72.7853Z" fill="#3B3B3B"/>
<path d="M203.925 55.896C203.925 55.896 184.288 47.2383 171.727 57.3153L190.786 66.8245L203.925 55.896Z" fill="#3B3B3B"/>
<path d="M164.798 74.0629C164.22 85.9849 179.092 96.0619 185.878 96.3457C198.007 96.9134 208.258 87.9719 208.836 76.0499C209.413 64.1278 200.028 53.9089 187.9 53.4831C169.851 52.7735 165.375 62.1408 164.798 74.0629Z" fill="#3B3B3B"/>
<path d="M199.307 84.7075C199.741 87.9719 202.773 89.817 206.094 89.3912C209.415 88.9654 211.725 85.2753 211.292 82.0109C210.858 78.7465 207.971 77.6111 204.65 78.0369C201.329 78.4627 198.874 81.4432 199.307 84.7075Z" fill="#F5D0B7"/>
<path d="M184.867 86.8369L180.969 118.203L195.263 119.197L195.841 91.5206L184.867 86.8369Z" fill="#EEB690"/>
<path d="M195.553 104.72C195.553 104.72 187.179 102.023 182.414 90.8105L195.698 94.7846L195.553 104.72Z" fill="#E9A272"/>
<path d="M198.294 55.4698C198.294 55.4698 211.577 56.4633 209.845 73.3529C208.112 90.2425 206.524 95.3519 199.304 98.6163C192.807 101.597 184.144 97.6228 179.956 90.2425C178.224 87.4039 177.069 83.0041 177.069 79.7397L176.202 75.3399C176.202 75.056 171.726 52.9151 198.294 55.4698Z" fill="#EEB690"/>
<path d="M182.413 66.541L178.37 82.1532L169.707 73.2117L174.616 67.8184L182.413 66.541Z" fill="#3B3B3B"/>
<path d="M200.027 82.5781L201.182 85.9844L199.305 86.9779" stroke="black" stroke-width="0.3662" stroke-miterlimit="10" stroke-linecap="round" stroke-linejoin="round"/>
<path d="M194.968 78.7466C194.968 78.7466 195.113 76.3338 190.926 76.4758C187.171 76.6177 186.738 78.4628 186.738 78.4628C186.738 78.4628 187.171 81.5852 191.214 81.8691C195.257 82.1529 194.968 78.7466 194.968 78.7466Z" fill="white"/>
<mask id="mask0_198_8370" style="mask-type:luminance" maskUnits="userSpaceOnUse" x="186" y="76" width="9" height="6">
<path d="M194.968 78.7466C194.968 78.7466 195.113 76.3338 190.926 76.4758C187.171 76.6177 186.738 78.4628 186.738 78.4628C186.738 78.4628 187.171 81.5852 191.214 81.8691C195.257 82.1529 194.968 78.7466 194.968 78.7466Z" fill="white"/>
</mask>
<g mask="url(#mask0_198_8370)">
<path d="M188.902 78.8887C188.902 80.5919 189.913 82.0112 191.357 82.0112C192.801 82.0112 193.956 80.7338 194.1 79.0306C194.1 77.3275 193.09 75.9082 191.646 75.9082C190.202 75.9082 188.902 77.1856 188.902 78.8887Z" fill="black"/>
</g>
<path d="M194.826 78.3207C194.392 77.8949 193.67 77.4691 192.948 77.1852C192.227 76.9014 191.505 76.7595 190.783 76.7595C190.061 76.7595 189.339 76.9014 188.617 77.1852C187.895 77.4691 187.317 78.0368 186.884 78.6045C186.884 78.7465 186.74 78.7465 186.595 78.6045C186.595 78.6045 186.451 78.4626 186.595 78.4626C187.462 77.0433 189.05 76.0498 190.783 76.0498C191.649 76.0498 192.515 76.1917 193.237 76.3337C194.104 76.6175 194.826 76.9014 195.547 77.611C195.692 77.753 195.836 78.1787 195.547 78.3207C195.403 78.6045 195.114 78.6045 194.826 78.3207Z" fill="black"/>
<path d="M202.626 79.1717C202.626 79.1717 202.77 76.9009 205.514 77.1847C208.113 77.4686 208.257 79.3136 208.257 79.3136C208.257 79.3136 207.824 82.1522 205.081 82.1522C202.337 82.1522 202.626 79.1717 202.626 79.1717Z" fill="white"/>
<mask id="mask1_198_8370" style="mask-type:luminance" maskUnits="userSpaceOnUse" x="202" y="77" width="7" height="6">
<path d="M202.626 79.1717C202.626 79.1717 202.77 76.9009 205.514 77.1847C208.113 77.4686 208.257 79.3136 208.257 79.3136C208.257 79.3136 207.824 82.1522 205.081 82.1522C202.337 82.1522 202.626 79.1717 202.626 79.1717Z" fill="white"/>
</mask>
<g mask="url(#mask1_198_8370)">
<path d="M207.391 79.5977C207.391 81.3009 206.38 82.5782 205.37 82.5782C204.359 82.5782 203.493 81.1589 203.637 79.5977C203.637 77.8946 204.648 76.6172 205.658 76.6172C206.669 76.6172 207.391 78.0365 207.391 79.5977Z" fill="black"/>
</g>
<path d="M202.337 78.0366C202.77 77.4689 203.347 77.185 203.925 76.9012C204.503 76.6173 205.224 76.6173 205.802 76.7592C206.524 76.9012 207.102 77.185 207.535 77.6108C207.968 78.0366 208.257 78.6043 208.401 79.172C208.401 79.172 208.401 79.314 208.257 79.314C208.257 79.314 208.112 79.314 208.112 79.172C207.679 78.1785 206.813 77.185 205.658 77.0431C205.08 77.0431 204.503 77.185 204.069 77.327C203.636 77.6108 203.059 77.8947 202.77 78.3205C202.626 78.4624 202.337 78.6043 202.192 78.4624C202.192 78.6043 202.048 78.3205 202.337 78.0366Z" fill="black"/>
<path d="M190.496 69.2371C190.496 69.2371 187.897 69.379 186.164 70.0887C184.72 70.6564 184.865 71.7918 186.02 72.2176C186.742 72.5015 188.907 72.6434 190.496 72.6434C195.116 72.3595 195.982 71.2241 195.838 70.3725C195.549 69.0952 192.373 68.9532 190.496 69.2371Z" fill="#3B3B3B"/>
<path d="M207.101 70.3728C207.101 70.3728 209.123 70.7986 210.422 71.7921C211.433 72.6437 211.433 73.6372 210.422 73.921C209.845 74.063 208.112 74.063 206.957 73.6372C203.347 72.5017 202.914 71.5082 202.914 70.7986C203.203 69.6632 205.657 69.947 207.101 70.3728Z" fill="#3B3B3B"/>
<path d="M193.094 88.2559C193.094 88.2559 195.548 90.2429 199.158 89.959" stroke="black" stroke-width="0.3662" stroke-miterlimit="10" stroke-linecap="round" stroke-linejoin="round"/>
<path d="M185.009 79.0298C184.865 82.578 187.608 85.5585 191.218 85.7004C194.828 85.8424 197.86 83.1457 198.004 79.5975C198.149 76.0493 195.405 73.0687 191.796 72.9268C188.186 72.643 185.154 75.4815 185.009 79.0298Z" stroke="white" stroke-width="0.5115" stroke-miterlimit="10"/>
<path d="M201.471 79.7392C201.327 83.2874 203.781 86.2679 206.813 86.4098C209.99 86.5518 212.589 83.8551 212.733 80.3069C212.878 76.7587 210.423 73.7781 207.391 73.6362C204.359 73.4943 201.615 76.1909 201.471 79.7392Z" stroke="white" stroke-width="0.5115" stroke-miterlimit="10"/>
<path d="M201.469 79.7389C201.469 79.7389 199.881 78.6035 198.004 79.597" stroke="white" stroke-width="0.5115" stroke-miterlimit="10"/>
<path d="M185.01 78.7454L179.523 78.6035" stroke="white" stroke-width="0.5115" stroke-miterlimit="10"/>
<path d="M200.315 55.8961C200.315 55.8961 201.614 66.9665 175.191 69.6632C175.191 69.6632 169.271 62.9925 177.213 57.1734C177.213 57.1734 186.453 52.9156 196.272 53.9091C197.86 54.051 200.17 55.0445 200.315 55.8961Z" fill="#3B3B3B"/>
<path d="M199.596 55.0439C199.596 55.0439 199.741 55.0439 199.885 55.1859C198.874 55.0439 198.297 55.3278 198.297 55.3278L198.152 58.3083C202.628 58.5922 205.949 61.7146 207.826 64.2693C208.404 65.2628 209.126 66.2563 209.848 67.5337C209.848 67.5337 213.024 56.1794 199.596 55.0439Z" fill="#3B3B3B"/>
<path d="M178.514 84.4238C178.514 84.4238 190.065 89.1075 187.61 104.862L161.332 103.584C161.332 103.584 156.711 78.179 168.118 61.1475L178.514 84.4238Z" fill="#3B3B3B"/>
<path d="M180.391 84.7072C179.525 87.8296 176.926 88.6812 173.605 87.8296C170.428 86.9781 168.696 83.004 169.562 79.8816C170.428 76.7592 173.461 75.9076 176.637 76.9011C179.958 77.6107 181.257 81.5848 180.391 84.7072Z" fill="#EEB690"/>
<path d="M173.172 80.591C173.172 80.591 176.204 80.0232 176.782 84.7069" stroke="black" stroke-width="0.3662" stroke-miterlimit="10" stroke-linecap="round" stroke-linejoin="round"/>
<path d="M210.713 404.332L208.98 379.211L228.04 380.063L229.05 404.616L210.713 404.332Z" fill="#EEB690"/>
<path d="M229.051 404.616L261.25 420.796C263.56 421.931 264.859 424.628 264.282 427.041L205.805 426.189L210.714 404.332L229.051 404.616Z" fill="#3B3B3B"/>
<path d="M205.805 426.047L205.66 430.447L259.084 430.731C261.394 430.731 263.56 429.169 264.281 427.04L205.805 426.047Z" fill="white"/>
<path d="M238.726 409.157L234.105 411.286" stroke="white" stroke-width="0.989" stroke-miterlimit="10" stroke-linecap="round" stroke-linejoin="round"/>
<path d="M243.491 411.286L238.727 413.557" stroke="white" stroke-width="0.989" stroke-miterlimit="10" stroke-linecap="round" stroke-linejoin="round"/>
<path d="M248.113 414.125L243.492 416.254" stroke="white" stroke-width="0.989" stroke-miterlimit="10" stroke-linecap="round" stroke-linejoin="round"/>
<path d="M205.948 184.626C205.948 184.626 220.531 211.593 225.296 271.77C230.35 336.49 234.104 393.829 234.104 393.829H206.237L181.402 184.626H205.948Z" fill="#A56A50"/>
<path d="M205.082 380.772H233.093" stroke="#653F67" stroke-width="0.4048" stroke-miterlimit="10" stroke-linecap="round" stroke-linejoin="round"/>
<path d="M154.402 404.332L154.98 378.785L173.028 379.637L171.729 404.616L154.402 404.332Z" fill="#EEB690"/>
<path d="M154.4 404.332L135.919 418.241C133.753 420.654 132.887 423.067 132.887 426.189H173.171L171.727 404.616L154.4 404.332Z" fill="#3B3B3B"/>
<path d="M132.958 430.582H173.242V426.182H132.958V430.582Z" fill="white"/>
<path d="M153.533 410.151L147.613 408.874" stroke="white" stroke-width="0.989" stroke-miterlimit="10" stroke-linecap="round" stroke-linejoin="round"/>
<path d="M150.645 413.274L143.426 411.854" stroke="white" stroke-width="0.989" stroke-miterlimit="10" stroke-linecap="round" stroke-linejoin="round"/>
<path d="M145.736 416.112L139.961 414.835" stroke="white" stroke-width="0.989" stroke-miterlimit="10" stroke-linecap="round" stroke-linejoin="round"/>
<path d="M166.962 184.626C166.962 184.626 155.844 194.135 151.657 241.398C147.47 288.66 150.646 393.829 150.646 393.829H175.914L193.241 184.626H166.962Z" fill="#A56A50"/>
<path d="M188.332 243.243L190.498 217.838" stroke="#653F67" stroke-width="0.4048" stroke-miterlimit="10" stroke-linecap="round" stroke-linejoin="round"/>
<path d="M150.645 380.772H177.067" stroke="#653F67" stroke-width="0.4048" stroke-miterlimit="10" stroke-linecap="round" stroke-linejoin="round"/>
<path d="M228.616 205.347C228.616 205.347 259.659 198.251 276.264 194.561L277.563 184.768L226.594 189.025C222.118 189.167 218.653 192.858 218.797 197.257C218.797 202.083 223.851 205.915 228.616 205.347Z" fill="#EEB690"/>
<path d="M201.902 154.253C201.902 154.253 206.667 178.523 219.229 200.38C221.539 204.496 226.593 206.341 230.78 204.78C234.534 203.36 236.411 199.386 235.4 195.412L219.373 142.898L201.902 154.253Z" fill="#EEB690"/>
<path d="M211.286 124.306C211.286 124.306 222.115 134.95 230.056 149.143L208.254 162.768L211.286 124.306Z" fill="#525252"/>
<path d="M157.721 124.306C163.352 120.758 175.336 114.371 188.042 113.661C188.042 113.661 199.593 114.513 211.289 124.306C212.877 125.583 215.187 130.409 215.043 133.389L205.946 185.335L167.106 184.484L153.245 134.667C152.956 132.254 155.555 125.725 157.721 124.306Z" fill="#525252"/>
<path d="M172.883 116.784C172.883 116.784 181.402 113.803 188.044 113.661C188.044 113.661 193.675 114.087 200.028 117.209C200.028 117.209 201.76 123.028 190.787 123.312C179.958 123.596 172.883 116.784 172.883 116.784Z" fill="#EEB690"/>
<path d="M210.133 161.349C210.133 161.349 212.299 152.124 210.566 141.337" stroke="black" stroke-width="0.3662" stroke-miterlimit="10" stroke-linecap="round" stroke-linejoin="round"/>
<path d="M150.356 138.641C150.356 138.641 130.864 155.956 118.591 178.381C116.281 182.497 117.724 187.748 121.767 190.303C125.377 192.574 130.142 192.006 133.174 189.025L163.784 155.672L150.356 138.641Z" fill="#EEB690"/>
<path d="M157.718 124.306C157.718 124.306 146.456 129.415 133.605 147.724L160.75 165.323L166.815 157.091L157.718 124.306Z" fill="#525252"/>
<path d="M161.473 164.471L173.024 151.13" stroke="black" stroke-width="0.3662" stroke-miterlimit="10" stroke-linecap="round" stroke-linejoin="round"/>
<path d="M168.405 209.463L161.619 210.456L131.875 177.245C129.132 173.839 124.078 173.271 120.469 175.968C116.57 178.948 116.426 185.051 119.747 188.599C119.747 188.599 141.694 207.476 154.977 218.972L158.731 223.514L168.405 209.463Z" fill="#EEB690"/>
<path d="M158.73 223.23L171.437 205.772" stroke="#653F67" stroke-width="0.4048" stroke-miterlimit="10" stroke-linecap="round" stroke-linejoin="round"/>
<path d="M477.54 307.723H274.386C267.6 307.723 262.258 302.33 262.258 295.801V181.548C262.258 174.877 267.745 169.626 274.386 169.626H477.54V307.723Z" fill="#989898"/>
<path d="M410.111 195.883H282.184V202.412H410.111V195.883Z" fill="white"/>
<path d="M324.922 260.461H282.184V266.99H324.922V260.461Z" fill="#565656"/>
<path d="M374.59 260.461H331.852V266.99H374.59V260.461Z" fill="#565656"/>
<path d="M458.771 260.461H381.812V266.99H458.771V260.461Z" fill="#565656"/>
<path d="M358.131 278.77H282.184V285.298H358.131V278.77Z" fill="#565656"/>
<path d="M388.02 278.77H364.629V285.298H388.02V278.77Z" fill="#565656"/>
<path d="M317.559 243.855H286.371C284.061 243.855 282.184 242.009 282.184 239.739V222.565C282.184 220.294 284.061 218.449 286.371 218.449H317.559C319.869 218.449 321.746 220.294 321.746 222.565V239.739C321.746 242.009 319.869 243.855 317.559 243.855Z" fill="#D1D1D1"/>
<path d="M301.964 237.893H277.707V224.552H301.964C305.718 224.552 308.75 227.532 308.75 231.222C308.895 234.913 305.718 237.893 301.964 237.893ZM279.295 236.332H301.964C304.852 236.332 307.162 234.061 307.162 231.222C307.162 228.384 304.852 226.113 301.964 226.113H279.295V236.332Z" fill="#989898"/>
<path d="M324.776 230.371H308.027V231.932H324.776V230.371Z" fill="#989898"/>
<path d="M620.195 424.53H0.195312" stroke="#2F1D2E" stroke-width="0.4945" stroke-miterlimit="10"/>
<path d="M84.0862 81.6292H122.926V62.3269C122.926 60.7656 121.627 59.4883 120.039 59.4883H84.0862C82.4979 59.4883 81.1985 60.7656 81.1985 62.3269V78.7906C81.0541 80.3519 82.3536 81.6292 84.0862 81.6292Z" fill="#A56A50"/>
<path d="M122.925 77.0879V86.881L114.406 77.0879H122.925Z" fill="#96543A"/>
<path d="M96.5044 70.2744C96.5044 71.2679 95.7824 71.9776 94.7717 71.9776C93.761 71.9776 93.0391 71.2679 93.0391 70.2744C93.0391 69.2809 93.761 68.5713 94.7717 68.5713C95.638 68.5713 96.5044 69.2809 96.5044 70.2744Z" fill="white"/>
<path d="M103.868 70.2744C103.868 71.2679 103.146 71.9776 102.135 71.9776C101.124 71.9776 100.402 71.2679 100.402 70.2744C100.402 69.2809 101.124 68.5713 102.135 68.5713C103.146 68.5713 103.868 69.2809 103.868 70.2744Z" fill="white"/>
<path d="M111.231 70.2744C111.231 71.2679 110.509 71.9776 109.498 71.9776C108.488 71.9776 107.766 71.2679 107.766 70.2744C107.766 69.2809 108.488 68.5713 109.498 68.5713C110.509 68.5713 111.231 69.2809 111.231 70.2744Z" fill="white"/>
<path d="M597.771 65.5594C600.638 48.0693 588.538 31.606 570.745 28.7875C552.952 25.9691 536.204 37.8628 533.336 55.3529C530.469 72.843 542.569 89.3063 560.362 92.1248C578.155 94.9432 594.903 83.0495 597.771 65.5594Z" fill="white"/>
<path d="M517.684 216.747H452.132C447.367 216.747 443.469 212.915 443.469 208.231V143.795C443.469 139.111 447.367 135.279 452.132 135.279H517.684C522.449 135.279 526.347 139.111 526.347 143.795V208.231C526.347 212.915 522.593 216.747 517.684 216.747Z" fill="#A56A50"/>
<path d="M495.883 156.285C491.119 154.724 487.942 152.311 486.209 150.892C485.487 150.324 484.477 150.324 483.755 150.892C482.166 152.311 478.846 154.724 474.081 156.285C469.749 157.704 465.273 157.988 462.819 158.13C461.808 158.13 461.086 158.982 461.086 159.975C461.23 165.51 462.385 182.258 468.883 189.922C476.247 198.438 485.054 199.999 485.054 199.999C485.054 199.999 493.717 198.438 501.226 189.922C507.723 182.4 508.878 165.652 509.023 159.975C509.023 158.982 508.301 158.13 507.29 158.13C504.691 158.13 500.215 157.704 495.883 156.285Z" fill="white"/>
<path d="M475.234 176.155L482.165 183.11L495.449 167.64" stroke="#96543A" stroke-width="2.3837" stroke-miterlimit="10" stroke-linecap="round" stroke-linejoin="round"/>
<path d="M584.533 299.207C600.721 299.207 613.844 286.308 613.844 270.396C613.844 254.483 600.721 241.584 584.533 241.584C568.346 241.584 555.223 254.483 555.223 270.396C555.223 286.308 568.346 299.207 584.533 299.207Z" fill="#DEDEDE"/>
<path d="M594.497 263.015C592.043 260.744 588.289 260.744 585.834 263.157L584.246 264.718L582.658 263.157C580.203 260.886 576.449 260.886 573.994 263.157C571.684 265.57 571.684 269.26 573.994 271.673L579.914 277.35C580.925 278.201 582.08 278.769 583.235 279.053C585.112 279.337 587.134 278.769 588.578 277.35L594.353 271.531C596.952 269.118 596.808 265.286 594.497 263.015Z" fill="white"/>
<path d="M116.718 273.66H72.9689C68.7817 273.66 65.3164 270.254 65.3164 266.138V230.372C65.3164 226.256 68.7817 222.85 72.9689 222.85H116.718C120.906 222.85 124.371 226.256 124.371 230.372V266.28C124.371 270.396 120.906 273.66 116.718 273.66Z" fill="#DEDEDE"/>
<path d="M105.599 246.126L103.866 245.843C103.722 245.133 103.289 244.281 103 243.714L104.011 242.294C104.444 241.727 104.299 241.017 103.866 240.591L102.855 239.598C102.422 239.172 101.7 239.03 101.123 239.456L99.6789 240.449C98.957 240.024 98.2351 239.74 97.5131 239.598L97.2243 237.753C97.0799 237.185 96.5024 236.617 95.9249 236.617H94.0478C93.3259 236.617 92.7483 237.043 92.7483 237.753L92.4596 239.456C91.7376 239.598 90.8713 240.023 90.2937 240.307L88.8499 239.314C88.2723 238.888 87.5504 239.03 87.1172 239.456L86.1065 240.449C85.6733 240.875 85.529 241.585 85.9621 242.152L86.9728 243.572C86.5397 244.281 86.2509 244.991 86.1065 245.701L84.3738 245.985C83.6519 246.126 83.2188 246.694 83.2188 247.262V248.681C83.2188 249.391 83.6519 249.959 84.3738 249.959L86.1065 250.242C86.2509 250.952 86.684 251.804 86.9728 252.371L85.9621 253.791C85.529 254.358 85.6733 255.068 86.1065 255.494L87.1172 256.487C87.5504 256.913 88.2723 257.055 88.8499 256.629L90.2937 255.636C91.0157 256.061 91.7376 256.345 92.4596 256.487L92.7483 258.19C92.8927 258.9 93.4703 259.326 94.0478 259.326H95.6361C96.358 259.326 96.9356 258.9 96.9356 258.19L97.2243 256.487C97.9463 256.345 98.8126 255.92 99.3901 255.636L100.834 256.629C101.412 257.055 102.134 256.913 102.567 256.487L103.577 255.494C104.011 255.068 104.155 254.358 103.722 253.791L102.711 252.371C103.144 251.662 103.433 250.952 103.577 250.242H105.599C106.321 250.1 106.754 249.533 106.754 248.965V247.546C106.754 246.836 106.176 246.268 105.599 246.126ZM94.7698 252.229C92.4596 252.229 90.7269 250.384 90.7269 248.255C90.7269 245.985 92.6039 244.281 94.7698 244.281C97.08 244.281 98.8126 246.126 98.8126 248.255C98.8126 250.526 97.08 252.229 94.7698 252.229Z" fill="white"/>
<path d="M576.939 69.1186C575.579 70.713 573.65 71.7904 571.458 72.0705L574.527 76.4015H571.151C569.857 76.4015 568.652 75.7766 567.928 74.7424L562.973 67.7395H570.252C571.787 67.7395 573.19 66.9423 573.935 65.7141C574.264 65.1754 574.483 64.5506 574.505 63.8611C574.615 61.5555 572.729 59.5947 570.362 59.5947H561.022C559.816 59.5947 558.786 58.7328 558.72 57.5693C558.632 56.298 559.663 55.2422 560.934 55.2422H570.186C574.856 55.2422 578.824 58.8406 578.956 63.4301C579.021 65.5848 578.254 67.5887 576.939 69.1186Z" fill="#DEDEDE"/>
<path d="M554.162 51.7956C555.521 50.2011 557.45 49.1238 559.642 48.8437L556.573 44.5127H559.949C561.243 44.5127 562.449 45.1376 563.172 46.1718L568.149 53.1531H560.87C559.336 53.1531 557.932 53.9503 557.187 55.1785C556.858 55.7172 556.639 56.3421 556.617 57.0316C556.485 59.3802 558.393 61.3195 560.739 61.3195H570.078C571.218 61.3195 572.227 62.1167 572.358 63.2156C572.534 64.5515 571.481 65.6935 570.144 65.6935H560.914C556.244 65.6935 552.276 62.0952 552.145 57.5056C552.079 55.3294 552.846 53.347 554.162 51.7956Z" fill="#DEDEDE"/>
</svg>
