<svg width="29" height="26" viewBox="0 0 29 26" fill="none" xmlns="http://www.w3.org/2000/svg">
<path fill-rule="evenodd" clip-rule="evenodd" d="M15.0299 0.66958C14.7057 0.466911 14.2942 0.466911 13.9699 0.66958L2.63659 7.75291C2.25829 7.98935 2.08235 8.44777 2.20534 8.87659C2.32832 9.30542 2.72048 9.60091 3.16659 9.60091H25.8333C26.2794 9.60091 26.6715 9.30542 26.7945 8.87659C26.9175 8.44777 26.7416 7.98935 26.3633 7.75291L15.0299 0.66958ZM14.4999 2.69683L22.3465 7.60091H6.65338L14.4999 2.69683Z" fill="#AF5801"/>
<path d="M7 11.5837C7 11.0314 6.55228 10.5837 6 10.5837C5.44772 10.5837 5 11.0314 5 11.5837V21.5003C5 22.0526 5.44772 22.5003 6 22.5003C6.55228 22.5003 7 22.0526 7 21.5003V11.5837Z" fill="#AF5801"/>
<path d="M1.75 23.4822C1.19772 23.4822 0.75 23.93 0.75 24.4822C0.75 25.0345 1.19772 25.4822 1.75 25.4822H27.25C27.8023 25.4822 28.25 25.0345 28.25 24.4822C28.25 23.93 27.8023 23.4822 27.25 23.4822H1.75Z" fill="#AF5801"/>
<path d="M11.6675 10.5837C12.2198 10.5837 12.6675 11.0314 12.6675 11.5837V21.5003C12.6675 22.0526 12.2198 22.5003 11.6675 22.5003C11.1152 22.5003 10.6675 22.0526 10.6675 21.5003V11.5837C10.6675 11.0314 11.1152 10.5837 11.6675 10.5837Z" fill="#AF5801"/>
<path d="M18.3325 11.5837C18.3325 11.0314 17.8848 10.5837 17.3325 10.5837C16.7802 10.5837 16.3325 11.0314 16.3325 11.5837V21.5003C16.3325 22.0526 16.7802 22.5003 17.3325 22.5003C17.8848 22.5003 18.3325 22.0526 18.3325 21.5003V11.5837Z" fill="#AF5801"/>
<path d="M23 10.5837C23.5523 10.5837 24 11.0314 24 11.5837V21.5003C24 22.0526 23.5523 22.5003 23 22.5003C22.4477 22.5003 22 22.0526 22 21.5003V11.5837C22 11.0314 22.4477 10.5837 23 10.5837Z" fill="#AF5801"/>
</svg>
