<svg width="37" height="27" viewBox="0 0 37 27" fill="none" xmlns="http://www.w3.org/2000/svg">
<path fill-rule="evenodd" clip-rule="evenodd" d="M4.66239 2.47134C3.31203 2.47134 2.22597 3.55898 2.22597 4.89004V21.8209C2.22597 23.152 3.31203 24.2396 4.66239 24.2396H31.8936C33.2439 24.2396 34.33 23.152 34.33 21.8209V4.89004C34.33 3.55898 33.2439 2.47134 31.8936 2.47134H4.66239ZM0.291016 4.89004C0.291016 2.48082 2.25291 0.536377 4.66239 0.536377H31.8936C34.303 0.536377 36.2649 2.48082 36.2649 4.89004V21.8209C36.2649 24.2301 34.303 26.1746 31.8936 26.1746H4.66239C2.25291 26.1746 0.291016 24.2301 0.291016 21.8209V4.89004Z" fill="#AF5801"/>
<path fill-rule="evenodd" clip-rule="evenodd" d="M0.291016 9.9687C0.291016 9.43438 0.724171 9.00122 1.2585 9.00122H35.2975C35.8318 9.00122 36.2649 9.43438 36.2649 9.9687C36.2649 10.503 35.8318 10.9362 35.2975 10.9362H1.2585C0.724171 10.9362 0.291016 10.503 0.291016 9.9687Z" fill="#AF5801"/>
<path d="M30.6528 16.169H28.9837C28.9532 15.9531 28.8909 15.7613 28.7969 15.5936C28.7029 15.4234 28.5823 15.2786 28.4349 15.1592C28.2876 15.0398 28.1174 14.9483 27.9243 14.8848C27.7337 14.8213 27.5267 14.7895 27.3031 14.7895C26.8992 14.7895 26.5473 14.8899 26.2476 15.0906C25.9478 15.2887 25.7153 15.5784 25.5502 15.9594C25.3851 16.338 25.3025 16.7978 25.3025 17.3389C25.3025 17.8953 25.3851 18.3627 25.5502 18.7413C25.7179 19.1198 25.9516 19.4056 26.2514 19.5987C26.5511 19.7918 26.8979 19.8883 27.2917 19.8883C27.5127 19.8883 27.7172 19.8591 27.9052 19.8006C28.0958 19.7422 28.2647 19.6571 28.4121 19.5453C28.5594 19.431 28.6813 19.2925 28.7779 19.13C28.877 18.9674 28.9456 18.7819 28.9837 18.5736L30.6528 18.5812C30.6096 18.9394 30.5016 19.2849 30.3288 19.6177C30.1586 19.948 29.9287 20.244 29.6391 20.5056C29.352 20.7648 29.0091 20.9705 28.6102 21.123C28.2139 21.2729 27.7655 21.3478 27.265 21.3478C26.5689 21.3478 25.9465 21.1903 25.3978 20.8753C24.8516 20.5603 24.4197 20.1042 24.1021 19.5072C23.7871 18.9102 23.6296 18.1874 23.6296 17.3389C23.6296 16.4879 23.7896 15.7638 24.1097 15.1668C24.4298 14.5698 24.8643 14.115 25.413 13.8026C25.9618 13.4875 26.5791 13.33 27.265 13.33C27.7172 13.33 28.1364 13.3935 28.5226 13.5206C28.9113 13.6476 29.2555 13.833 29.5553 14.0769C29.855 14.3183 30.0989 14.6142 30.2869 14.9648C30.4775 15.3154 30.5994 15.7168 30.6528 16.169Z" fill="#AF5801"/>
</svg>
