<svg width="37" height="27" viewBox="0 0 37 27" fill="none" xmlns="http://www.w3.org/2000/svg">
<path fill-rule="evenodd" clip-rule="evenodd" d="M4.66239 2.47134C3.31203 2.47134 2.22597 3.55898 2.22597 4.89004V9.00182H34.33V4.89004C34.33 3.55898 33.2439 2.47134 31.8936 2.47134H4.66239ZM36.2649 4.89004C36.2649 2.48082 34.303 0.536377 31.8936 0.536377H4.66239C2.25291 0.536377 0.291016 2.48082 0.291016 4.89004V21.8209C0.291016 24.2301 2.25291 26.1746 4.66239 26.1746H31.8936C34.303 26.1746 36.2649 24.2301 36.2649 21.8209V4.89004ZM34.33 21.9368H2.22597V21.8209C2.22597 23.152 3.31203 24.2396 4.66239 24.2396H31.8936C33.2439 24.2396 34.33 23.152 34.33 21.8209V21.9368Z" fill="#AF5801"/>
<path d="M8.26855 18.8554H5.69043V11.5827H8.28986C9.0214 11.5827 9.65113 11.7283 10.1791 12.0195C10.707 12.3083 11.113 12.7238 11.3971 13.266C11.6836 13.8081 11.8268 14.4568 11.8268 15.212C11.8268 15.9696 11.6836 16.6206 11.3971 17.1651C11.113 17.7096 10.7046 18.1275 10.172 18.4187C9.64166 18.7099 9.00719 18.8554 8.26855 18.8554ZM7.22807 17.538H8.20463C8.65918 17.538 9.04152 17.4575 9.35165 17.2965C9.66415 17.1331 9.89853 16.881 10.0548 16.5401C10.2134 16.1968 10.2927 15.7541 10.2927 15.212C10.2927 14.6746 10.2134 14.2354 10.0548 13.8945C9.89853 13.5536 9.66534 13.3027 9.3552 13.1417C9.04507 12.9807 8.66273 12.9002 8.20819 12.9002H7.22807V17.538Z" fill="white"/>
<path d="M15.4232 18.962C14.8621 18.962 14.3792 18.8483 13.9743 18.6211C13.5719 18.3914 13.2617 18.0671 13.0439 17.6481C12.8261 17.2267 12.7172 16.7283 12.7172 16.153C12.7172 15.592 12.8261 15.0995 13.0439 14.6758C13.2617 14.252 13.5683 13.9217 13.9637 13.685C14.3614 13.4482 14.8278 13.3299 15.3628 13.3299C15.7227 13.3299 16.0577 13.3879 16.3678 13.5039C16.6803 13.6175 16.9526 13.7892 17.1846 14.0188C17.4189 14.2484 17.6012 14.5373 17.7314 14.8853C17.8617 15.2309 17.9268 15.6357 17.9268 16.0998V16.5152H13.3209V15.5777H16.5028C16.5028 15.3599 16.4554 15.167 16.3607 14.9989C16.266 14.8308 16.1346 14.6994 15.9665 14.6047C15.8008 14.5077 15.6079 14.4591 15.3877 14.4591C15.1581 14.4591 14.9545 14.5124 14.7769 14.6189C14.6017 14.7231 14.4644 14.864 14.365 15.0415C14.2655 15.2167 14.2146 15.412 14.2123 15.6275V16.5188C14.2123 16.7887 14.262 17.0219 14.3614 17.2184C14.4632 17.4149 14.6064 17.5664 14.7911 17.6729C14.9758 17.7795 15.1948 17.8327 15.4481 17.8327C15.6162 17.8327 15.77 17.809 15.9097 17.7617C16.0494 17.7143 16.1689 17.6433 16.2684 17.5486C16.3678 17.4539 16.4436 17.3379 16.4957 17.2006L17.8948 17.2929C17.8238 17.6291 17.6782 17.9227 17.458 18.1736C17.2402 18.4222 16.9585 18.6163 16.6128 18.756C16.2696 18.8933 15.873 18.962 15.4232 18.962Z" fill="white"/>
<path d="M18.9424 18.8554V11.5827H20.4552V14.3171H20.5013C20.5676 14.1703 20.6635 14.0212 20.789 13.8697C20.9168 13.7158 21.0825 13.5879 21.2861 13.4861C21.4921 13.382 21.7478 13.3299 22.0532 13.3299C22.4509 13.3299 22.8179 13.434 23.154 13.6424C23.4902 13.8483 23.7589 14.1597 23.9601 14.5763C24.1614 14.9906 24.262 15.5103 24.262 16.1353C24.262 16.7437 24.1637 17.2574 23.9672 17.6765C23.7731 18.0931 23.508 18.4092 23.1718 18.6246C22.838 18.8377 22.4639 18.9442 22.0496 18.9442C21.7561 18.9442 21.5063 18.8957 21.3003 18.7986C21.0967 18.7016 20.9298 18.5796 20.7996 18.4329C20.6694 18.2837 20.57 18.1334 20.5013 17.9819H20.4339V18.8554H18.9424ZM20.4232 16.1282C20.4232 16.4525 20.4682 16.7354 20.5582 16.9769C20.6481 17.2184 20.7783 17.4066 20.9488 17.5415C21.1192 17.6741 21.3264 17.7404 21.5702 17.7404C21.8164 17.7404 22.0248 17.6729 22.1952 17.538C22.3657 17.4007 22.4947 17.2113 22.5823 16.9698C22.6723 16.7259 22.7172 16.4454 22.7172 16.1282C22.7172 15.8133 22.6734 15.5363 22.5858 15.2972C22.4983 15.0581 22.3692 14.8711 22.1988 14.7361C22.0283 14.6012 21.8188 14.5337 21.5702 14.5337C21.324 14.5337 21.1157 14.5988 20.9452 14.729C20.7771 14.8592 20.6481 15.0439 20.5582 15.283C20.4682 15.5221 20.4232 15.8038 20.4232 16.1282Z" fill="white"/>
<path d="M25.2714 18.8554V13.4009H26.7842V18.8554H25.2714ZM26.0313 12.6978C25.8064 12.6978 25.6135 12.6232 25.4525 12.4741C25.2939 12.3225 25.2146 12.1414 25.2146 11.9307C25.2146 11.7224 25.2939 11.5437 25.4525 11.3945C25.6135 11.243 25.8064 11.1672 26.0313 11.1672C26.2562 11.1672 26.448 11.243 26.6066 11.3945C26.7676 11.5437 26.8481 11.7224 26.8481 11.9307C26.8481 12.1414 26.7676 12.3225 26.6066 12.4741C26.448 12.6232 26.2562 12.6978 26.0313 12.6978Z" fill="white"/>
<path d="M30.8973 13.4009V14.5373H27.6125V13.4009H30.8973ZM28.3582 12.0941H29.871V17.1793C29.871 17.319 29.8923 17.4279 29.9349 17.506C29.9775 17.5818 30.0367 17.635 30.1125 17.6658C30.1906 17.6966 30.2806 17.712 30.3824 17.712C30.4534 17.712 30.5244 17.7061 30.5954 17.6942C30.6665 17.68 30.7209 17.6694 30.7588 17.6623L30.9967 18.788C30.921 18.8116 30.8144 18.8389 30.6771 18.8697C30.5398 18.9028 30.3729 18.9229 30.1764 18.93C29.8118 18.9442 29.4922 18.8957 29.2176 18.7844C28.9453 18.6732 28.7335 18.5003 28.5819 18.266C28.4304 18.0316 28.3559 17.7357 28.3582 17.3782V12.0941Z" fill="white"/>
</svg>
