<svg width="37" height="30" viewBox="0 0 37 30" fill="none" xmlns="http://www.w3.org/2000/svg">
<path fill-rule="evenodd" clip-rule="evenodd" d="M4.73136 2.23096C3.38252 2.23096 2.28906 3.32441 2.28906 4.67326V25.3271C2.28906 26.6759 3.38252 27.7694 4.73136 27.7694H32.2698C33.6186 27.7694 34.7121 26.6759 34.7121 25.3271V4.67326C34.7121 3.32441 33.6186 2.23096 32.2698 2.23096H4.73136ZM0.289062 4.67326C0.289062 2.21984 2.27795 0.230957 4.73136 0.230957H32.2698C34.7232 0.230957 36.7121 2.21984 36.7121 4.67326V25.3271C36.7121 27.7805 34.7232 29.7694 32.2698 29.7694H4.73136C2.27795 29.7694 0.289062 27.7805 0.289062 25.3271V4.67326Z" fill="#834934"/>
<path fill-rule="evenodd" clip-rule="evenodd" d="M0.445179 5.85809C0.741385 5.39195 1.35938 5.2542 1.82552 5.5504L17.2614 15.3591C17.633 15.5913 18.0624 15.7145 18.5007 15.7145C18.939 15.7145 19.3684 15.5913 19.74 15.3591L19.7426 15.3576L35.1759 5.5504C35.642 5.2542 36.26 5.39195 36.5562 5.85809C36.8524 6.32422 36.7147 6.94222 36.2485 7.23842L20.8044 17.0524C20.1139 17.485 19.3155 17.7145 18.5007 17.7145C17.6859 17.7145 16.8875 17.485 16.197 17.0524L16.1916 17.049L0.752862 7.23842C0.286728 6.94222 0.148974 6.32422 0.445179 5.85809Z" fill="#834934"/>
</svg>
