
<svg width="176" height="130" viewBox="0 0 176 130" fill="none" xmlns="http://www.w3.org/2000/svg">
<path d="M2.68171 37.6075C2.35927 36.1398 3.28206 34.6872 4.7476 34.3553L144.92 2.61634C146.39 2.28351 147.852 3.20339 148.188 4.67257L167.663 89.8148C167.999 91.2863 167.079 92.752 165.608 93.0886L24.7713 125.305C23.2908 125.643 21.8182 124.71 21.4923 123.227L2.68171 37.6075Z" stroke="#747474" stroke-width="0.780897"/>
<path d="M21.5836 80.002C21.4533 79.4304 21.8086 78.8607 22.3791 78.7262L47.019 72.9155C47.5855 72.7819 48.1545 73.1268 48.2981 73.6908L51.6455 86.835C51.7926 87.4124 51.4384 87.9983 50.8588 88.1365L25.899 94.0861C25.3216 94.2238 24.7429 93.8639 24.611 93.2852L21.5836 80.002Z" fill="#CACACA"/>
<path d="M18.9281 65.9419L20.7302 67.8215L20.7736 67.812L21.6263 65.3517L22.5961 65.1396L21.4746 68.2917L23.8206 70.6852L22.8454 70.8986L21.0444 69.05L21.0011 69.0595L20.1364 71.4912L19.1611 71.7045L20.3233 68.5435L17.9583 66.1541L18.9281 65.9419ZM24.0089 64.8305L25.811 66.7101L25.8543 66.7006L26.7071 64.2403L27.6769 64.0281L26.5554 67.1802L28.9014 69.5738L27.9261 69.7871L26.1252 67.9386L26.0818 67.9481L25.2171 70.3798L24.2419 70.5931L25.404 67.4321L23.0391 65.0427L24.0089 64.8305ZM29.0897 63.7191L30.8917 65.5986L30.9351 65.5891L31.7878 63.1288L32.7577 62.9167L31.6361 66.0688L33.9821 68.4624L33.0069 68.6757L31.2059 66.8272L31.1626 66.8366L30.2979 69.2683L29.3226 69.4817L30.4848 66.3207L28.1198 63.9312L29.0897 63.7191ZM34.1704 62.6077L35.9725 64.4872L36.0158 64.4777L36.8686 62.0174L37.8384 61.8053L36.7169 64.9574L39.0629 67.351L38.0877 67.5643L36.2867 65.7157L36.2433 65.7252L35.3786 68.1569L34.4034 68.3702L35.5656 65.2092L33.2006 62.8198L34.1704 62.6077ZM43.2889 60.6129L45.091 62.4925L45.1344 62.483L45.9871 60.0227L46.957 59.8106L45.8354 62.9627L48.1814 65.3563L47.2062 65.5696L45.4052 63.721L45.3619 63.7305L44.4972 66.1622L43.5219 66.3755L44.6841 63.2145L42.3191 60.8251L43.2889 60.6129ZM48.3697 59.5015L50.1718 61.3811L50.2151 61.3716L51.0679 58.9113L52.0377 58.6991L50.9162 61.8512L53.2622 64.2448L52.287 64.4582L50.486 62.6096L50.4426 62.6191L49.5779 65.0508L48.6027 65.2641L49.7649 62.1031L47.3999 59.7137L48.3697 59.5015ZM53.4505 58.3901L55.2525 60.2696L55.2959 60.2602L56.1486 57.7999L57.1185 57.5877L55.9969 60.7398L58.343 63.1334L57.3677 63.3467L55.5667 61.4982L55.5234 61.5077L54.6587 63.9393L53.6834 64.1527L54.8456 60.9917L52.4806 58.6022L53.4505 58.3901ZM58.5312 57.2787L60.3333 59.1582L60.3766 59.1487L61.2294 56.6884L62.1992 56.4763L61.0777 59.6284L63.4237 62.022L62.4485 62.2353L60.6475 60.3867L60.6041 60.3962L59.7394 62.8279L58.7642 63.0412L59.9264 59.8802L57.5614 57.4908L58.5312 57.2787ZM67.6497 55.284L69.4518 57.1635L69.4952 57.154L70.3479 54.6937L71.3178 54.4816L70.1962 57.6337L72.5422 60.0273L71.567 60.2406L69.766 58.392L69.7227 58.4015L68.858 60.8332L67.8827 61.0465L69.0449 57.8855L66.6799 55.4961L67.6497 55.284ZM72.7305 54.1725L74.5326 56.0521L74.5759 56.0426L75.4287 53.5823L76.3985 53.3701L75.277 56.5223L77.623 58.9158L76.6478 59.1292L74.8468 57.2806L74.8034 57.2901L73.9387 59.7218L72.9635 59.9351L74.1257 56.7741L71.7607 54.3847L72.7305 54.1725ZM77.8113 53.0611L79.6134 54.9406L79.6567 54.9312L80.5094 52.4709L81.4793 52.2587L80.3577 55.4108L82.7038 57.8044L81.7285 58.0177L79.9275 56.1692L79.8842 56.1787L79.0195 58.6103L78.0443 58.8237L79.2064 55.6627L76.8414 53.2733L77.8113 53.0611ZM82.892 51.9497L84.6941 53.8292L84.7375 53.8197L85.5902 51.3594L86.56 51.1473L85.4385 54.2994L87.7845 56.693L86.8093 56.9063L85.0083 55.0578L84.9649 55.0672L84.1003 57.4989L83.125 57.7123L84.2872 54.5513L81.9222 52.1618L82.892 51.9497ZM92.0106 49.955L93.8126 51.8345L93.856 51.825L94.7087 49.3647L95.6786 49.1526L94.557 52.3047L96.903 54.6983L95.9278 54.9116L94.1268 53.063L94.0835 53.0725L93.2188 55.5042L92.2435 55.7176L93.4057 52.5566L91.0407 50.1671L92.0106 49.955ZM97.0913 48.8435L98.8934 50.7231L98.9368 50.7136L99.7895 48.2533L100.759 48.0412L99.6378 51.1933L101.984 53.5868L101.009 53.8002L99.2076 51.9516L99.1642 51.9611L98.2995 54.3928L97.3243 54.6061L98.4865 51.4451L96.1215 49.0557L97.0913 48.8435ZM102.172 47.7321L103.974 49.6117L104.018 49.6022L104.87 47.1419L105.84 46.9297L104.719 50.0818L107.065 52.4754L106.089 52.6888L104.288 50.8402L104.245 50.8497L103.38 53.2814L102.405 53.4947L103.567 50.3337L101.202 47.9443L102.172 47.7321ZM107.253 46.6207L109.055 48.5002L109.098 48.4907L109.951 46.0304L110.921 45.8183L109.799 48.9704L112.145 51.364L111.17 51.5773L109.369 49.7288L109.326 49.7382L108.461 52.1699L107.486 52.3833L108.648 49.2223L106.283 46.8328L107.253 46.6207Z" fill="#747474"/>
<path d="M29.3063 107.729C29.2286 107.368 29.4543 107.011 29.8136 106.927L94.1617 91.8617C94.5143 91.7791 94.8694 91.9888 94.9674 92.3374L96.093 96.3411C96.1973 96.7123 95.9709 97.0955 95.5955 97.1832L30.9903 112.278C30.6218 112.364 30.2544 112.131 30.1748 111.761L29.3063 107.729Z" stroke="#CACACA" stroke-width="0.780897"/>
<circle cx="144.288" cy="79.8765" r="8.98032" transform="rotate(-8.57697 144.288 79.8765)" fill="#CACACA"/>
<circle cx="128.961" cy="82.9781" r="8.58987" transform="rotate(-8.57697 128.961 82.9781)" stroke="#CACACA" stroke-width="0.780897"/>
<path d="M20.0218 38.8637C19.9219 37.3644 21.051 36.0656 22.5496 35.956L165.888 25.477C167.391 25.3671 168.699 26.4947 168.812 27.9976L175.372 115.092C175.485 116.597 174.357 117.909 172.852 118.023L28.7854 128.875C27.271 128.989 25.954 127.846 25.853 126.331L20.0218 38.8637Z" fill="white" stroke="#747474" stroke-width="0.780897"/>
<path d="M36.0241 48.2347L37.5257 50.362L37.57 50.3591L38.7801 48.0535L39.7707 47.9883L38.1917 50.9379L40.1545 53.6546L39.1583 53.7201L37.6532 51.6236L37.6089 51.6266L36.3912 53.9021L35.3951 53.9676L37.0157 51.0153L35.0335 48.2998L36.0241 48.2347ZM41.2138 47.8934L42.7154 50.0207L42.7597 50.0178L43.9698 47.7122L44.9604 47.6471L43.3814 50.5967L45.3442 53.3134L44.348 53.3789L42.8428 51.2824L42.7986 51.2853L41.5809 53.5608L40.5848 53.6263L42.2053 50.674L40.2232 47.9586L41.2138 47.8934ZM46.4035 47.5522L47.9051 49.6795L47.9494 49.6765L49.1595 47.3709L50.1501 47.3058L48.571 50.2554L50.5338 52.9721L49.5377 53.0376L48.0325 50.9411L47.9883 50.944L46.7706 53.2196L45.7744 53.2851L47.395 50.3327L45.4129 47.6173L46.4035 47.5522ZM51.5932 47.2109L53.0948 49.3382L53.1391 49.3353L54.3492 47.0297L55.3398 46.9645L53.7607 49.9141L55.7235 52.6308L54.7274 52.6963L53.2222 50.5998L53.178 50.6028L51.9603 52.8783L50.9641 52.9438L52.5847 49.9915L50.6025 47.2761L51.5932 47.2109ZM60.9072 46.5984L62.4088 48.7257L62.4531 48.7228L63.6632 46.4172L64.6539 46.3521L63.0748 49.3017L65.0376 52.0183L64.0414 52.0839L62.5363 49.9874L62.492 49.9903L61.2743 52.2658L60.2782 52.3313L61.8988 49.379L59.9166 46.6636L60.9072 46.5984ZM66.0969 46.2572L67.5985 48.3845L67.6428 48.3815L68.8529 46.0759L69.8436 46.0108L68.2645 48.9604L70.2273 51.6771L69.2311 51.7426L67.726 49.6461L67.6817 49.649L66.464 51.9245L65.4679 51.9901L67.0885 49.0377L65.1063 46.3223L66.0969 46.2572ZM71.2866 45.9159L72.7882 48.0432L72.8325 48.0403L74.0426 45.7347L75.0332 45.6695L73.4542 48.6191L75.417 51.3358L74.4208 51.4013L72.9157 49.3048L72.8714 49.3078L71.6537 51.5833L70.6576 51.6488L72.2781 48.6965L70.296 45.981L71.2866 45.9159ZM76.4763 45.5746L77.9779 47.7019L78.0222 47.699L79.2323 45.3934L80.2229 45.3283L78.6439 48.2779L80.6067 50.9946L79.6105 51.0601L78.1053 48.9636L78.0611 48.9665L76.8434 51.242L75.8472 51.3075L77.4678 48.3552L75.4857 45.6398L76.4763 45.5746ZM85.7903 44.9622L87.292 47.0894L87.3362 47.0865L88.5464 44.7809L89.537 44.7158L87.9579 47.6654L89.9207 50.3821L88.9245 50.4476L87.4194 48.3511L87.3751 48.354L86.1575 50.6295L85.1613 50.695L86.7819 47.7427L84.7997 45.0273L85.7903 44.9622ZM90.98 44.6209L92.4817 46.7482L92.5259 46.7453L93.7361 44.4397L94.7267 44.3745L93.1476 47.3241L95.1104 50.0408L94.1142 50.1063L92.6091 48.0098L92.5648 48.0127L91.3471 50.2883L90.351 50.3538L91.9716 47.4015L89.9894 44.686L90.98 44.6209ZM96.1697 44.2796L97.6713 46.4069L97.7156 46.404L98.9257 44.0984L99.9164 44.0333L98.3373 46.9829L100.3 49.6995L99.3039 49.7651L97.7988 47.6686L97.7545 47.6715L96.5368 49.947L95.5407 50.0125L97.1613 47.0602L95.1791 44.3448L96.1697 44.2796ZM101.359 43.9384L102.861 46.0657L102.905 46.0627L104.115 43.7571L105.106 43.692L103.527 46.6416L105.49 49.3583L104.494 49.4238L102.988 47.3273L102.944 47.3302L101.727 49.6057L100.73 49.6713L102.351 46.7189L100.369 44.0035L101.359 43.9384ZM110.673 43.3259L112.175 45.4532L112.219 45.4503L113.429 43.1447L114.42 43.0795L112.841 46.0291L114.804 48.7458L113.808 48.8113L112.303 46.7148L112.258 46.7177L111.041 48.9933L110.044 49.0588L111.665 46.1064L109.683 43.391L110.673 43.3259ZM115.863 42.9846L117.365 45.1119L117.409 45.109L118.619 42.8034L119.61 42.7383L118.031 45.6878L119.994 48.4045L118.997 48.47L117.492 46.3736L117.448 46.3765L116.23 48.652L115.234 48.7175L116.855 45.7652L114.873 43.0498L115.863 42.9846ZM121.053 42.6434L122.554 44.7706L122.599 44.7677L123.809 42.4621L124.799 42.397L123.22 45.3466L125.183 48.0633L124.187 48.1288L122.682 46.0323L122.638 46.0352L121.42 48.3107L120.424 48.3762L122.044 45.4239L120.062 42.7085L121.053 42.6434ZM126.243 42.3021L127.744 44.4294L127.788 44.4265L128.999 42.1209L129.989 42.0557L128.41 45.0053L130.373 47.722L129.377 47.7875L127.872 45.691L127.827 45.6939L126.61 47.9695L125.613 48.035L127.234 45.0827L125.252 42.3672L126.243 42.3021Z" fill="#747474"/>
<circle cx="151.398" cy="96.3124" r="8.98032" fill="#CACACA"/>
<circle cx="135.777" cy="97.0936" r="8.58987" stroke="#CACACA" stroke-width="0.780897"/>
</svg>
