<svg width="176" height="130" viewBox="0 0 176 130" fill="none" xmlns="http://www.w3.org/2000/svg">
<path d="M2.6778 37.5787C2.35536 36.111 3.27816 34.6583 4.74369 34.3265L144.916 2.58753C146.386 2.2547 147.848 3.17458 148.184 4.64376L167.659 89.786C167.996 91.2575 167.076 92.7232 165.604 93.0598L24.7674 125.276C23.2869 125.615 21.8143 124.681 21.4884 123.198L2.6778 37.5787Z" stroke="#AF5801" stroke-width="0.780897"/>
<path d="M21.5778 79.9732C21.4475 79.4016 21.8027 78.8319 22.3733 78.6974L47.0132 72.8866C47.5796 72.7531 48.1487 73.098 48.2923 73.662L51.6397 86.8062C51.7867 87.3836 51.4325 87.9695 50.853 88.1077L25.8931 94.0573C25.3158 94.195 24.7371 93.8351 24.6052 93.2564L21.5778 79.9732Z" fill="#D2AB90"/>
<path d="M18.9262 65.9131L20.7283 67.7927L20.7716 67.7832L21.6244 65.3229L22.5942 65.1107L21.4727 68.2629L23.8187 70.6564L22.8434 70.8698L21.0424 69.0212L20.9991 69.0307L20.1344 71.4624L19.1592 71.6757L20.3213 68.5147L17.9564 66.1253L18.9262 65.9131ZM24.0069 64.8017L25.809 66.6812L25.8524 66.6718L26.7051 64.2115L27.6749 63.9993L26.5534 67.1514L28.8994 69.545L27.9242 69.7583L26.1232 67.9098L26.0799 67.9193L25.2152 70.3509L24.2399 70.5643L25.4021 67.4033L23.0371 65.0139L24.0069 64.8017ZM29.0877 63.6903L30.8898 65.5698L30.9331 65.5603L31.7859 63.1L32.7557 62.8879L31.6342 66.04L33.9802 68.4336L33.0049 68.6469L31.204 66.7984L31.1606 66.8078L30.2959 69.2395L29.3207 69.4529L30.4828 66.2919L28.1179 63.9024L29.0877 63.6903ZM34.1685 62.5788L35.9705 64.4584L36.0139 64.4489L36.8666 61.9886L37.8365 61.7765L36.7149 64.9286L39.0609 67.3221L38.0857 67.5355L36.2847 65.6869L36.2414 65.6964L35.3767 68.1281L34.4014 68.3414L35.5636 65.1804L33.1986 62.791L34.1685 62.5788ZM43.287 60.5841L45.0891 62.4637L45.1324 62.4542L45.9852 59.9939L46.955 59.7818L45.8335 62.9339L48.1795 65.3274L47.2042 65.5408L45.4032 63.6922L45.3599 63.7017L44.4952 66.1334L43.52 66.3467L44.6821 63.1857L42.3172 60.7963L43.287 60.5841ZM48.3677 59.4727L50.1698 61.3523L50.2132 61.3428L51.0659 58.8825L52.0358 58.6703L50.9142 61.8224L53.2602 64.216L52.285 64.4294L50.484 62.5808L50.4407 62.5903L49.576 65.022L48.6007 65.2353L49.7629 62.0743L47.3979 59.6849L48.3677 59.4727ZM53.4485 58.3613L55.2506 60.2408L55.2939 60.2313L56.1467 57.771L57.1165 57.5589L55.995 60.711L58.341 63.1046L57.3658 63.3179L55.5648 61.4694L55.5214 61.4788L54.6567 63.9105L53.6815 64.1239L54.8437 60.9629L52.4787 58.5734L53.4485 58.3613ZM58.5293 57.2499L60.3313 59.1294L60.3747 59.1199L61.2274 56.6596L62.1973 56.4475L61.0757 59.5996L63.4218 61.9932L62.4465 62.2065L60.6455 60.3579L60.6022 60.3674L59.7375 62.7991L58.7622 63.0124L59.9244 59.8514L57.5594 57.462L58.5293 57.2499ZM67.6478 55.2551L69.4499 57.1347L69.4932 57.1252L70.346 54.6649L71.3158 54.4528L70.1943 57.6049L72.5403 59.9985L71.565 60.2118L69.7641 58.3632L69.7207 58.3727L68.856 60.8044L67.8808 61.0177L69.0429 57.8567L66.678 55.4673L67.6478 55.2551ZM72.7286 54.1437L74.5306 56.0233L74.574 56.0138L75.4267 53.5535L76.3966 53.3413L75.275 56.4934L77.621 58.887L76.6458 59.1004L74.8448 57.2518L74.8015 57.2613L73.9368 59.693L72.9615 59.9063L74.1237 56.7453L71.7587 54.3559L72.7286 54.1437ZM77.8093 53.0323L79.6114 54.9118L79.6547 54.9024L80.5075 52.4421L81.4773 52.2299L80.3558 55.382L82.7018 57.7756L81.7266 57.9889L79.9256 56.1404L79.8822 56.1499L79.0175 58.5815L78.0423 58.7949L79.2045 55.6339L76.8395 53.2444L77.8093 53.0323ZM82.8901 51.9209L84.6922 53.8004L84.7355 53.7909L85.5882 51.3306L86.5581 51.1185L85.4365 54.2706L87.7826 56.6642L86.8073 56.8775L85.0063 55.0289L84.963 55.0384L84.0983 57.4701L83.1231 57.6834L84.2852 54.5224L81.9202 52.133L82.8901 51.9209ZM92.0086 49.9262L93.8107 51.8057L93.854 51.7962L94.7068 49.3359L95.6766 49.1238L94.5551 52.2759L96.9011 54.6695L95.9258 54.8828L94.1249 53.0342L94.0815 53.0437L93.2168 55.4754L92.2416 55.6887L93.4037 52.5277L91.0388 50.1383L92.0086 49.9262ZM97.0894 48.8147L98.8915 50.6943L98.9348 50.6848L99.7875 48.2245L100.757 48.0123L99.6358 51.1645L101.982 53.558L101.007 53.7714L99.2056 51.9228L99.1623 51.9323L98.2976 54.364L97.3224 54.5773L98.4845 51.4163L96.1195 49.0269L97.0894 48.8147ZM102.17 47.7033L103.972 49.5828L104.016 49.5734L104.868 47.1131L105.838 46.9009L104.717 50.053L107.063 52.4466L106.087 52.6599L104.286 50.8114L104.243 50.8209L103.378 53.2525L102.403 53.4659L103.565 50.3049L101.2 47.9155L102.17 47.7033ZM107.251 46.5919L109.053 48.4714L109.096 48.4619L109.949 46.0016L110.919 45.7895L109.797 48.9416L112.143 51.3352L111.168 51.5485L109.367 49.7L109.324 49.7094L108.459 52.1411L107.484 52.3545L108.646 49.1935L106.281 46.804L107.251 46.5919Z" fill="#AF5801"/>
<path d="M29.3004 107.7C29.2227 107.34 29.4484 106.983 29.8077 106.899L94.1558 91.8333C94.5085 91.7508 94.8636 91.9605 94.9616 92.3091L96.0871 96.3128C96.1915 96.684 95.9651 97.0672 95.5896 97.1549L30.9844 112.25C30.616 112.336 30.2486 112.103 30.1689 111.733L29.3004 107.7Z" stroke="#D2AB90" stroke-width="0.780897"/>
<circle cx="144.286" cy="79.8482" r="8.98032" transform="rotate(-8.57697 144.286 79.8482)" fill="#D2AB90"/>
<circle cx="128.957" cy="82.9488" r="8.58987" transform="rotate(-8.57697 128.957 82.9488)" stroke="#D2AB90" stroke-width="0.780897"/>
<path d="M20.0179 38.8354C19.918 37.3361 21.0471 36.0373 22.5457 35.9277L165.884 25.4487C167.387 25.3388 168.695 26.4664 168.808 27.9693L175.368 115.064C175.481 116.569 174.353 117.881 172.848 117.995L28.7814 128.846C27.2671 128.96 25.9501 127.818 25.8491 126.303L20.0179 38.8354Z" fill="white" stroke="#AF5801" stroke-width="0.780897"/>
<path d="M36.0221 48.2064L37.5238 50.3337L37.568 50.3308L38.7782 48.0252L39.7688 47.96L38.1897 50.9096L40.1525 53.6263L39.1564 53.6918L37.6512 51.5953L37.6069 51.5982L36.3893 53.8738L35.3931 53.9393L37.0137 50.9869L35.0315 48.2715L36.0221 48.2064ZM41.2118 47.8651L42.7135 49.9924L42.7577 49.9895L43.9679 47.6839L44.9585 47.6187L43.3794 50.5683L45.3422 53.285L44.3461 53.3505L42.8409 51.2541L42.7966 51.257L41.579 53.5325L40.5828 53.598L42.2034 50.6457L40.2212 47.9303L41.2118 47.8651ZM46.4015 47.5239L47.9032 49.6511L47.9474 49.6482L49.1576 47.3426L50.1482 47.2775L48.5691 50.2271L50.5319 52.9438L49.5357 53.0093L48.0306 50.9128L47.9863 50.9157L46.7686 53.1912L45.7725 53.2567L47.3931 50.3044L45.4109 47.589L46.4015 47.5239ZM51.5912 47.1826L53.0928 49.3099L53.1371 49.307L54.3472 47.0014L55.3379 46.9362L53.7588 49.8858L55.7216 52.6025L54.7254 52.668L53.2203 50.5715L53.176 50.5744L51.9583 52.85L50.9622 52.9155L52.5828 49.9631L50.6006 47.2477L51.5912 47.1826ZM60.9053 46.5701L62.4069 48.6974L62.4512 48.6945L63.6613 46.3889L64.6519 46.3237L63.0728 49.2733L65.0356 51.99L64.0395 52.0555L62.5343 49.9591L62.49 49.962L61.2724 52.2375L60.2762 52.303L61.8968 49.3507L59.9146 46.6353L60.9053 46.5701ZM66.095 46.2288L67.5966 48.3561L67.6409 48.3532L68.851 46.0476L69.8416 45.9825L68.2625 48.9321L70.2253 51.6488L69.2292 51.7143L67.724 49.6178L67.6797 49.6207L66.4621 51.8962L65.4659 51.9617L67.0865 49.0094L65.1043 46.294L66.095 46.2288ZM71.2846 45.8876L72.7863 48.0149L72.8305 48.012L74.0407 45.7064L75.0313 45.6412L73.4522 48.5908L75.415 51.3075L74.4189 51.373L72.9137 49.2765L72.8694 49.2794L71.6518 51.555L70.6556 51.6205L72.2762 48.6681L70.294 45.9527L71.2846 45.8876ZM76.4743 45.5463L77.976 47.6736L78.0202 47.6707L79.2304 45.3651L80.221 45.2999L78.6419 48.2495L80.6047 50.9662L79.6085 51.0317L78.1034 48.9353L78.0591 48.9382L76.8415 51.2137L75.8453 51.2792L77.4659 48.3269L75.4837 45.6115L76.4743 45.5463ZM85.7884 44.9338L87.29 47.0611L87.3343 47.0582L88.5444 44.7526L89.535 44.6875L87.9559 47.6371L89.9188 50.3538L88.9226 50.4193L87.4174 48.3228L87.3732 48.3257L86.1555 50.6012L85.1593 50.6667L86.7799 47.7144L84.7978 44.999L85.7884 44.9338ZM90.9781 44.5926L92.4797 46.7199L92.524 46.7169L93.7341 44.4113L94.7247 44.3462L93.1456 47.2958L95.1084 50.0125L94.1123 50.078L92.6071 47.9815L92.5629 47.9844L91.3452 50.26L90.349 50.3255L91.9696 47.3731L89.9875 44.6577L90.9781 44.5926ZM96.1678 44.2513L97.6694 46.3786L97.7137 46.3757L98.9238 44.0701L99.9144 44.0049L98.3353 46.9545L100.298 49.6712L99.302 49.7367L97.7968 47.6402L97.7525 47.6432L96.5349 49.9187L95.5387 49.9842L97.1593 47.0319L95.1771 44.3165L96.1678 44.2513ZM101.357 43.91L102.859 46.0373L102.903 46.0344L104.113 43.7288L105.104 43.6637L103.525 46.6133L105.488 49.33L104.492 49.3955L102.987 47.299L102.942 47.3019L101.725 49.5774L100.728 49.6429L102.349 46.6906L100.367 43.9752L101.357 43.91ZM110.671 43.2976L112.173 45.4249L112.217 45.4219L113.428 43.1163L114.418 43.0512L112.839 46.0008L114.802 48.7175L113.806 48.783L112.301 46.6865L112.256 46.6894L111.039 48.9649L110.042 49.0305L111.663 46.0781L109.681 43.3627L110.671 43.2976ZM115.861 42.9563L117.363 45.0836L117.407 45.0807L118.617 42.7751L119.608 42.7099L118.029 45.6595L119.992 48.3762L118.995 48.4417L117.49 46.3452L117.446 46.3482L116.228 48.6237L115.232 48.6892L116.853 45.7369L114.871 43.0214L115.861 42.9563ZM121.051 42.615L122.553 44.7423L122.597 44.7394L123.807 42.4338L124.798 42.3687L123.218 45.3183L125.181 48.035L124.185 48.1005L122.68 46.004L122.636 46.0069L121.418 48.2824L120.422 48.3479L122.042 45.3956L120.06 42.6802L121.051 42.615ZM126.241 42.2738L127.742 44.4011L127.786 44.3981L128.997 42.0925L129.987 42.0274L128.408 44.977L130.371 47.6937L129.375 47.7592L127.87 45.6627L127.825 45.6656L126.608 47.9412L125.612 48.0067L127.232 45.0543L125.25 42.3389L126.241 42.2738Z" fill="#AF5801"/>
<circle cx="151.394" cy="96.284" r="8.98032" fill="#D2AB90"/>
<circle cx="135.773" cy="97.0653" r="8.58987" stroke="#D2AB90" stroke-width="0.780897"/>
</svg>
