<svg width="23" height="21" viewBox="0 0 23 21" fill="none" xmlns="http://www.w3.org/2000/svg">
<path fill-rule="evenodd" clip-rule="evenodd" d="M1.48862 0.38176C1.87915 -0.00876391 2.51231 -0.00876391 2.90283 0.38176L6.54156 4.02049C6.59986 4.0668 6.65369 4.12025 6.70168 4.18061L17.0927 14.5716C17.1605 14.6236 17.2225 14.6851 17.2767 14.7556L20.9028 18.3818C21.2934 18.7723 21.2934 19.4054 20.9028 19.796C20.5123 20.1865 19.8791 20.1865 19.4886 19.796L16.3349 16.6422C14.89 17.4877 13.1673 18.0889 11.1957 18.0889C8.33406 18.0889 6.00107 16.8241 4.27248 15.3814C2.54623 13.9407 1.36269 12.2746 0.769946 11.336C0.762112 11.3236 0.75407 11.311 0.745856 11.298C0.628223 11.1129 0.475492 10.8725 0.398295 10.5356C0.335966 10.2636 0.335987 9.91382 0.398347 9.64185C0.475595 9.30496 0.628757 9.06395 0.746698 8.87836C0.754978 8.86533 0.763084 8.85258 0.770978 8.84008C1.37337 7.88649 2.59666 6.1641 4.39107 4.69842L1.48862 1.79597C1.0981 1.40545 1.0981 0.772285 1.48862 0.38176ZM5.8136 6.12095C4.17439 7.41508 3.02935 9.00989 2.46186 9.90822C2.42636 9.96441 2.40148 10.0039 2.38068 10.0381C2.3668 10.0609 2.35766 10.0767 2.35156 10.0877L2.35156 10.0888L2.35156 10.0901C2.35758 10.1009 2.36658 10.1164 2.38021 10.1389C2.40088 10.1729 2.4256 10.2121 2.46095 10.2681C2.99361 11.1115 4.04771 12.5888 5.554 13.846C7.05794 15.1012 8.9524 16.0889 11.1957 16.0889C12.5487 16.0889 13.7731 15.7303 14.8627 15.1701L13.2275 13.5349C12.6321 13.8866 11.9371 14.0889 11.1957 14.0889C8.98659 14.0889 7.19573 12.298 7.19573 10.0889C7.19573 9.34748 7.39802 8.65249 7.74969 8.05705L5.8136 6.12095ZM9.26331 9.57066C9.21919 9.73585 9.19573 9.90952 9.19573 10.0889C9.19573 11.1934 10.0912 12.0889 11.1957 12.0889C11.3751 12.0889 11.5487 12.0654 11.7139 12.0213L9.26331 9.57066ZM11.1957 4.08887C10.8139 4.08887 10.4435 4.11736 10.0845 4.17043C9.53817 4.25121 9.02979 3.87379 8.94901 3.32745C8.86823 2.7811 9.24565 2.27272 9.792 2.19194C10.2458 2.12484 10.714 2.08887 11.1957 2.08887C14.0574 2.08887 16.3904 3.35359 18.119 4.7963C19.8452 6.23705 21.0288 7.90315 21.6215 8.84172C21.6293 8.85412 21.6374 8.86678 21.6456 8.87971C21.7632 9.06488 21.916 9.30531 21.9932 9.64218C22.0555 9.91415 22.0555 10.264 21.9931 10.536C21.9158 10.8729 21.7624 11.1143 21.6443 11.3001C21.636 11.3132 21.6278 11.326 21.6199 11.3386C21.3016 11.8424 20.8185 12.5469 20.1785 13.3113C19.824 13.7348 19.1933 13.7906 18.7698 13.436C18.3464 13.0815 18.2905 12.4508 18.6451 12.0273C19.2164 11.345 19.6478 10.7156 19.9291 10.2703C19.9647 10.214 19.9896 10.1744 20.0105 10.1401C20.0245 10.117 20.0338 10.1011 20.0399 10.09L20.0399 10.0889L20.0399 10.0877C20.0339 10.0769 20.0249 10.0613 20.0112 10.0389C19.9906 10.0048 19.9659 9.96563 19.9305 9.90966C19.3979 9.06624 18.3437 7.58894 16.8375 6.33177C15.3335 5.07657 13.4391 4.08887 11.1957 4.08887Z" fill="#747474"/>
</svg>
