<svg width="33" height="34" viewBox="0 0 33 34" fill="none" xmlns="http://www.w3.org/2000/svg">
<path fill-rule="evenodd" clip-rule="evenodd" d="M11.3656 17.5893C11.8598 17.095 12.5302 16.8174 13.2291 16.8174H19.7704C20.4694 16.8174 21.1397 17.095 21.6339 17.5893C22.1281 18.0835 22.4058 18.7538 22.4058 19.4527V32.5354C22.4058 33.0877 21.958 33.5354 21.4058 33.5354C20.8535 33.5354 20.4058 33.0877 20.4058 32.5354V19.4527C20.4058 19.2842 20.3388 19.1226 20.2197 19.0035C20.1005 18.8843 19.9389 18.8174 19.7704 18.8174H13.2291C13.0606 18.8174 12.899 18.8843 12.7798 19.0035C12.6607 19.1226 12.5938 19.2842 12.5938 19.4527V32.5354C12.5938 33.0877 12.146 33.5354 11.5938 33.5354C11.0415 33.5354 10.5938 33.0877 10.5938 32.5354V19.4527C10.5938 18.7538 10.8714 18.0835 11.3656 17.5893Z" fill="#834934"/>
<path fill-rule="evenodd" clip-rule="evenodd" d="M15.0359 2.99925L3.58622 12.8117C3.33394 13.0249 3.13121 13.2905 2.99218 13.5902C2.85316 13.8898 2.78117 14.2161 2.78125 14.5464V29.2647C2.78125 29.8669 3.02048 30.4445 3.44631 30.8703C3.87215 31.2961 4.4497 31.5354 5.05192 31.5354H27.9466C28.5488 31.5354 29.1264 31.2961 29.5522 30.8703C29.9781 30.4445 30.2173 29.8669 30.2173 29.2647V14.5467C30.2174 14.2164 30.1454 13.8898 30.0064 13.5902C29.8673 13.2905 29.6646 13.0249 29.4123 12.8116L29.4071 12.8072L17.965 3.00127L17.9625 2.9992C17.5531 2.65413 17.0348 2.46484 16.4993 2.46484C15.9637 2.46484 15.4454 2.65415 15.0359 2.99925ZM13.7425 1.47375C14.5134 0.822274 15.49 0.464844 16.4993 0.464844C17.5085 0.464844 18.4852 0.822274 19.256 1.47375L19.2612 1.47818L30.7033 11.2841L30.7062 11.2866C31.1794 11.6872 31.5596 12.186 31.8206 12.7484C32.082 13.3118 32.2174 13.9255 32.2173 14.5467V29.2647C32.2173 30.3973 31.7673 31.4836 30.9664 32.2845C30.1655 33.0854 29.0793 33.5354 27.9466 33.5354H5.05192C3.91927 33.5354 2.83301 33.0854 2.0321 32.2845C1.23119 31.4836 0.78125 30.3973 0.78125 29.2647V14.5469C0.781136 13.9258 0.916522 13.3118 1.17797 12.7484C1.43893 12.1859 1.81922 11.6871 2.29238 11.2865L13.7425 1.47375Z" fill="#834934"/>
</svg>
