<svg width="33" height="17" viewBox="0 0 33 17" fill="none" xmlns="http://www.w3.org/2000/svg">
<path d="M2.77903 8.48588C3.3813 9.08815 3.95813 9.66498 4.56041 10.2673C4.9591 9.86857 5.35355 9.47412 5.74376 9.08391C6.34604 8.48163 6.9059 8.48164 7.50818 9.07543C7.88991 9.45716 8.27587 9.83464 8.6576 10.2164C8.67032 10.2291 8.69153 10.2333 8.74243 10.2503C9.13263 9.86009 9.53557 9.45715 9.93426 9.05846C10.4941 8.4986 11.0752 8.49436 11.6308 9.04998C12.267 9.68619 12.9032 10.3224 13.5394 10.9586C14.0187 11.4379 14.0484 12.0699 13.6115 12.5067C13.1789 12.9393 12.5385 12.9181 12.0592 12.4473C11.6393 12.0359 11.2279 11.616 10.7868 11.1749C10.3711 11.5906 9.97243 11.9893 9.5695 12.3922C9.00115 12.9605 8.41584 12.9605 7.84749 12.3922C7.45304 11.9978 7.05859 11.6033 6.64294 11.1876C6.57083 11.2513 6.50297 11.3022 6.43935 11.3658C6.05762 11.7475 5.68014 12.1335 5.28993 12.5067C4.86579 12.9139 4.24655 12.9393 3.83089 12.5237C2.71965 11.4294 1.61688 10.3266 0.522605 9.2154C0.115431 8.79974 0.132396 8.17201 0.548053 7.75636C1.63385 6.66208 2.71965 5.57628 3.81393 4.49048C4.0472 4.25721 4.33986 4.1851 4.66221 4.1851C8.79332 4.1851 12.9202 4.18086 17.0471 4.19358C17.3016 4.19358 17.3779 4.10876 17.4458 3.8882C17.6875 3.08658 17.9378 2.27647 18.4764 1.61058C19.3502 0.533261 20.4996 0.0200531 21.878 0.0158118C23.7485 0.0115703 25.6147 0.028536 27.4851 0.0327774C28.7279 0.0370187 29.7967 0.469641 30.6407 1.38154C30.9546 1.72085 31.2261 2.12803 31.4169 2.54792C32.1889 4.25296 32.6724 6.04283 32.7572 7.92601C32.842 9.89402 32.49 11.7899 31.769 13.6137C31.5272 14.2202 31.243 14.8268 30.8783 15.3612C30.2166 16.3112 29.2496 16.8626 28.1044 16.9305C26.7387 17.0153 25.3687 16.9771 23.9987 16.9729C23.1504 16.9729 22.2979 17.0026 21.4539 16.939C19.681 16.8117 18.4552 15.8744 17.7893 14.2414C17.5136 13.5586 17.31 12.846 17.1065 12.1335C16.9198 11.4888 17.221 10.9416 17.7936 10.7762C18.3916 10.6108 18.9175 10.9247 19.1254 11.5736C19.3247 12.1886 19.5028 12.8163 19.7276 13.4229C20.0712 14.3602 20.771 14.848 21.755 14.8564C23.6636 14.8734 25.5723 14.8734 27.4851 14.8777C28.5031 14.8777 29.1987 14.4026 29.5889 13.4525C30.3269 11.6627 30.768 9.82191 30.6577 7.87936C30.5644 6.28459 30.1487 4.76617 29.4659 3.32834C29.0757 2.50551 28.3758 2.13651 27.4809 2.13227C25.8225 2.12803 24.1641 2.12378 22.5015 2.12378C22.2046 2.12378 21.8992 2.10682 21.6023 2.14075C20.8092 2.22134 20.1857 2.59034 19.8803 3.34531C19.6343 3.95607 19.4435 4.58803 19.2611 5.22C19.0108 6.07252 18.7394 6.30156 17.8614 6.29732C13.743 6.30156 9.62888 6.30156 5.50624 6.29307C5.14148 6.29307 4.87427 6.38214 4.61979 6.65359C4.03448 7.26435 3.41099 7.85391 2.77903 8.48588Z" fill="#834934"/>
</svg>
