<svg width="25" height="25" viewBox="0 0 25 25" fill="none" xmlns="http://www.w3.org/2000/svg">
<path d="M24.2595 8.75528C24.2539 7.30018 23.5956 6.1715 22.3452 5.48545C19.4903 3.91415 16.818 2.46458 14.1844 1.05927C13.0668 0.46174 11.8883 0.467272 10.7652 1.07587C7.87158 2.63056 5.20481 4.08567 2.62103 5.52971C1.3983 6.21023 0.74544 7.32784 0.739908 8.76635C0.734375 11.7153 0.734375 14.714 0.734375 17.6187C0.734375 18.6422 0.734375 19.6658 0.734375 20.6838V20.7115C0.734375 20.8332 0.734375 20.9605 0.750973 21.0877C1.05527 23.1182 2.52144 24.3852 4.57408 24.3852C6.44967 24.3852 8.32526 24.3852 10.2064 24.3852H12.4582C13.2715 24.3852 14.0904 24.3852 14.9037 24.3852C15.6893 24.3852 16.4915 24.3852 17.2938 24.3852C18.3616 24.3852 19.4405 24.3852 20.5083 24.3797C22.6384 24.3741 24.2484 22.7696 24.2539 20.6396C24.265 16.656 24.265 12.6558 24.2595 8.75528ZM2.5657 11.3833C2.5657 10.5368 2.5657 9.69031 2.56017 8.8438C2.56017 7.98623 2.9198 7.39423 3.68885 6.98481C5.97939 5.75102 8.45805 4.40657 11.4844 2.75228C11.8275 2.56417 12.1594 2.47012 12.4914 2.47012C12.8178 2.47012 13.1443 2.55864 13.4762 2.74122C14.6492 3.37748 15.8442 4.03034 17.0006 4.65554C18.4612 5.44672 19.9716 6.27109 21.4599 7.07887C22.0962 7.42743 22.4226 7.9807 22.4226 8.72762C22.4282 12.8329 22.4282 16.8828 22.4226 20.6506C22.4226 21.7516 21.6204 22.5539 20.5138 22.5539C18.605 22.5594 16.6631 22.5594 14.7819 22.5539C14.0074 22.5539 13.2383 22.5539 12.4637 22.5539C11.7002 22.5539 10.9312 22.5539 10.1677 22.5483C8.34739 22.5428 6.46074 22.5373 4.60728 22.5649C4.03741 22.576 3.5118 22.3713 3.13004 21.9951C2.75382 21.6188 2.54357 21.0932 2.54911 20.5123C2.57124 17.4693 2.5657 14.3765 2.5657 11.3833Z" fill="#834934"/>
<path d="M12.7745 19.3285C12.78 19.3285 12.7855 19.3285 12.7855 19.3285H12.7911C14.3292 19.2787 15.6625 18.4986 16.5422 17.1321C16.8465 16.6618 17.0236 16.114 17.1951 15.5829C17.2726 15.3339 17.2504 15.0794 17.1287 14.8636C17.007 14.6479 16.8023 14.493 16.5588 14.4321C16.0443 14.3048 15.574 14.587 15.4136 15.1181C15.397 15.1679 15.3859 15.2177 15.3748 15.262C15.3638 15.3007 15.3582 15.345 15.3416 15.3837C15.0761 16.3077 14.3624 17.0491 13.4329 17.3534C12.5089 17.6577 11.5019 17.4972 10.7384 16.9107C10.1575 16.4681 9.79233 15.9149 9.63188 15.2233C9.52123 14.7475 9.27225 14.4874 8.86837 14.4155C8.5364 14.3602 8.24317 14.4487 8.03846 14.6645C7.81162 14.9024 7.73416 15.262 7.82822 15.6493C8.34829 17.8513 10.329 19.3285 12.7745 19.3285Z" fill="#834934"/>
</svg>
