<svg width="253" height="118" viewBox="0 0 253 118" fill="none" xmlns="http://www.w3.org/2000/svg">
<path opacity="0.2" d="M69.5329 38.2317L69.6068 38.2437L69.6811 38.2334L123.132 30.863L162.96 41.4407L163.078 41.472L163.198 41.4454L203.096 32.5439L239.959 103.05L180.492 117.082L122.832 111.14L122.783 111.135L122.734 111.139L55.3644 117.491L13.3806 100.747L37.1728 32.9911L69.5329 38.2317Z" fill="#EFF8FF" stroke="#CACACA"/>
<path d="M27.5723 3.18429L63.7213 9.03704L122.8 0.893066L166.838 12.587L211.264 2.67384L252.46 81.4627L186.078 97.1242L122.377 90.558L47.9264 97.5766L1 78.8641L27.5723 3.18429Z" fill="white" stroke="#CACACA" stroke-linecap="round" stroke-linejoin="round"/>
<g opacity="0.64">
<path d="M173.386 45.9355H173.45L173.512 45.9192L195.155 40.2534L211.217 53.6112C211.16 53.6385 211.098 53.6671 211.031 53.6968C210.455 53.952 209.499 54.2882 208.023 54.579C205.07 55.1608 200.046 55.5584 191.833 54.7698C183.663 53.9852 177.462 51.5506 173.308 49.3173C171.231 48.2005 169.666 47.134 168.623 46.3495C168.426 46.2009 168.247 46.0623 168.087 45.9355H173.386Z" fill="white" stroke="#CACACA"/>
<path d="M91.2168 28.0263L93.3077 17.2826L93.4511 16.5454L92.7156 16.6975L84.4035 18.4165L85.8923 14.4449L99.9383 11.3912L102.758 14.4891L100.945 26.8861L91.2168 28.0263Z" fill="white" stroke="#CACACA"/>
<path d="M95.8106 30.7218V34.5385L90.577 35.5862L91.3438 30.9811L95.8106 30.7218Z" fill="white" stroke="#CACACA"/>
<path d="M74.257 34.3897L86.4604 31.1914L85.4176 36.4005L74.0073 37.8662L74.257 34.3897Z" fill="white" stroke="#CACACA"/>
<path d="M149.77 65.7033C149.77 64.0139 150.849 62.4106 152.744 61.2049C154.633 60.003 157.274 59.2427 160.215 59.2427C163.163 59.2427 165.803 60.0045 167.69 61.2069C169.584 62.4132 170.661 64.0165 170.661 65.7033C170.661 67.3898 169.582 68.9931 167.686 70.1997C165.797 71.4023 163.157 72.164 160.215 72.164C157.274 72.164 154.633 71.4036 152.744 70.2018C150.849 68.996 149.77 67.3928 149.77 65.7033ZM154.738 65.7207C154.738 66.8267 155.441 67.7555 156.427 68.3831C157.42 69.0143 158.76 69.3878 160.215 69.3878C161.675 69.3878 163.018 69.0161 164.012 68.3882C165 67.7642 165.704 66.8398 165.704 65.7381C165.704 64.6375 164.998 63.7035 164.011 63.0697C163.016 62.4312 161.672 62.0478 160.215 62.0478C158.76 62.0478 157.419 62.423 156.427 63.0558C155.44 63.6849 154.738 64.6151 154.738 65.7207Z" fill="white" stroke="#CACACA"/>
<path d="M63.2216 85.627L69.4833 71.3091L69.7896 70.6087H69.0252H60.8777L63.3518 64.3006L81.2751 63.3992L73.104 83.3707L63.2216 85.627Z" fill="white" stroke="#CACACA"/>
<path d="M123.587 39.3186L123.405 39.1697L123.175 39.2148L110.766 41.639V38.5219L122.931 35.7851L137.311 40.2091L126.896 42.0274L123.587 39.3186Z" fill="white" stroke="#CACACA"/>
<path d="M111.694 33.6977L111.417 26.536L115.539 26.2769L116.37 32.6569L111.694 33.6977Z" fill="white" stroke="#CACACA"/>
<path d="M47.107 49.8852L27.4859 44.7523L32.2629 31.0165L41.546 31.3176L50.0666 39.2316L47.107 49.8852Z" fill="white" stroke="#CACACA"/>
</g>
<path d="M34.4477 8.2716L62.6848 13.3587L122.477 5.73096L167.762 16.4156L206.944 7.51173L240.535 78.5859L183.858 92.6812L122.79 86.8226L48.4386 91.9793L12.9219 76.2308L34.4477 8.2716Z" fill="white" stroke="#CACACA" stroke-linecap="round" stroke-linejoin="round"/>
<path d="M236.202 69.4098L227.994 61.289C229.409 61.1092 230.778 60.9119 232.089 60.7089L231.063 58.5279C229.421 58.7715 227.698 59.0036 225.9 59.2124L201.433 34.9951C207.936 34.0264 214.113 33.1911 218.835 32.7039L217.785 30.4881C212.681 31.0333 206.184 31.9324 199.49 32.9417L199.56 32.5183L198.777 32.3965L190.151 23.858L209.519 12.9124L208.527 10.8126L188.458 22.1585L179.873 13.6665L177.193 14.2465L194.902 31.7642L138.579 22.9532C138.306 22.3325 138.033 21.7118 137.784 21.0738C136.174 16.9853 134.924 12.7638 134.048 8.45758L131.554 7.87752C132.471 12.6533 133.83 17.3333 135.615 21.8569L135.893 22.5355L122.697 20.4647L109.077 21.6538L108.59 7.50049L106.27 7.79632L107.54 46.515C106.751 46.515 105.962 46.515 105.22 46.4802C83.7867 45.8595 60.6367 39.6065 57.2085 37.7388C54.8883 36.4568 49.6678 30.4185 46.8894 26.9903C52.5681 26.6945 58.0612 25.9288 61.3095 24.2409C65.7644 21.9207 76.304 15.8011 85.3586 10.4646L79.5117 11.2128C71.7795 15.7431 63.9198 20.2791 60.248 22.1817C53.676 25.5924 36.0771 24.8847 29.3195 24.4671L28.5944 26.7525C31.1119 26.9207 35.5087 27.1527 40.3812 27.1527C41.5413 27.1527 42.7884 27.1527 44.0123 27.1063C44.8824 28.2084 52.5101 37.8142 56.1006 39.7747C59.6912 41.7353 82.9978 48.1565 105.156 48.7946C105.972 48.8178 106.801 48.8294 107.644 48.8294L107.818 54.1253L90.0861 54.6416L89.8192 54.5487L89.7844 54.6474L54.5635 55.674L22.0456 47.4373L21.3438 49.6531L41.3731 54.717L22.8113 80.6048L24.9807 81.5619L43.8093 55.3318L54.3315 57.9943L88.9782 56.985L78.891 85.4599L67.0405 90.6804L73.8735 90.2105L122.784 68.6789L157.686 49.9837C161.658 52.6322 165.945 54.7755 170.447 56.3643C174.532 57.7964 178.703 58.9685 182.935 59.8736L177.819 70.1116L156.734 90.1003L159.797 90.3903L179.565 71.6546L179.71 71.5154L185.29 60.3551C191.165 61.4688 197.113 62.1512 203.087 62.3969L198.388 89.0794L200.853 88.4704L205.459 62.4607C206.671 62.4897 207.872 62.5129 209.061 62.5129C214.404 62.5072 219.742 62.2148 225.053 61.637L239.108 75.5583L236.202 69.4098ZM81.8029 84.1895L91.4434 56.927L107.894 56.4571L108.422 72.484L81.8029 84.1895ZM193.382 33.9104C179.925 36.0334 167.077 38.3304 164.281 38.8873L161.961 39.3571C159.478 39.8734 155.609 40.6796 150.911 41.5613C146.28 36.8832 142.487 31.4444 139.698 25.4822L193.382 33.9104ZM109.17 23.974L122.598 22.8139L136.949 25.0646C139.751 31.3223 143.576 37.0699 148.266 42.0718C140.377 43.5045 130.632 45.0474 121.136 45.8885L121.038 45.7435L120.771 45.9233C117.059 46.2424 113.393 46.457 109.889 46.5034L109.17 23.974ZM109.982 48.8004C112.233 48.7656 114.553 48.6612 116.902 48.5104L110.127 53.0812L109.982 48.8004ZM121.827 66.5617L110.724 71.4457L110.214 55.8249L121.583 48.1507C131.746 47.2342 142.146 45.5405 150.278 44.0323C151.948 45.6261 153.716 47.1121 155.574 48.4814L121.827 66.5617ZM171.236 54.1369C164.526 51.8245 158.337 48.2136 153.022 43.5103C156.995 42.7504 160.261 42.0718 162.454 41.6135L164.733 41.1437C168.875 40.3142 184.107 37.6633 198.568 35.4301L222.93 59.5198C208.284 60.9293 189.49 60.5871 171.236 54.1369Z" fill="white" stroke="#CACACA" stroke-linecap="round" stroke-linejoin="round"/>
<path d="M51.9017 72.0083L48.1836 93.7604" stroke="#CACACA" stroke-linecap="round" stroke-linejoin="round"/>
<path d="M62.1808 11.8335L52.6562 67.5884" stroke="#CACACA" stroke-linecap="round" stroke-linejoin="round"/>
<path d="M122.32 3.2251L122.639 25.7486" stroke="#CACACA" stroke-linecap="round" stroke-linejoin="round"/>
<path d="M169.258 29.9487L182.274 84.7523" stroke="#CACACA" stroke-linecap="round" stroke-linejoin="round"/>
<path d="M165.777 15.2788L168.637 27.3323" stroke="#CACACA" stroke-linecap="round" stroke-linejoin="round"/>
<path d="M122.954 88.8761L122.641 75.5522" stroke="#CACACA" stroke-linecap="round" stroke-linejoin="round"/>
</svg>
