<svg width="37" height="34" viewBox="0 0 37 34" fill="none" xmlns="http://www.w3.org/2000/svg">
<path fill-rule="evenodd" clip-rule="evenodd" d="M24.5975 22.9933C24.988 22.6028 25.6212 22.6028 26.0117 22.9933C26.4396 23.4212 26.779 23.9292 27.0106 24.4882C27.2421 25.0473 27.3613 25.6465 27.3613 26.2516C27.3613 26.8567 27.2421 27.4559 27.0106 28.0149C26.779 28.574 26.4396 29.082 26.0117 29.5098C25.5838 29.9377 25.0759 30.2771 24.5168 30.5087C23.9578 30.7403 23.3586 30.8595 22.7535 30.8595C22.1483 30.8595 21.5492 30.7403 20.9901 30.5087C20.431 30.2771 19.9231 29.9377 19.4952 29.5098L16.0937 26.1083C15.7032 25.7178 15.7032 25.0846 16.0937 24.6941C16.4842 24.3036 17.1174 24.3036 17.5079 24.6941L20.9094 28.0956C21.1516 28.3378 21.4391 28.5299 21.7555 28.6609C22.0719 28.792 22.411 28.8595 22.7535 28.8595C23.0959 28.8595 23.435 28.792 23.7514 28.6609C24.0678 28.5299 24.3553 28.3378 24.5975 28.0956C24.8397 27.8535 25.0318 27.566 25.1628 27.2496C25.2939 26.9332 25.3613 26.5941 25.3613 26.2516C25.3613 25.9091 25.2939 25.57 25.1628 25.2536C25.0318 24.9372 24.8397 24.6497 24.5975 24.4075C24.207 24.017 24.207 23.3839 24.5975 22.9933Z" fill="#834934"/>
<path fill-rule="evenodd" clip-rule="evenodd" d="M27.1211 3.84313C25.4313 2.83283 23.4529 2.415 21.4989 2.65579C19.5451 2.89655 17.7275 3.78201 16.3336 5.17201L11.5548 9.95076C11.0658 10.4398 10.791 11.1032 10.791 11.7948C10.791 12.4865 11.0658 13.1498 11.5548 13.6388C12.0439 14.1279 12.7072 14.4027 13.3989 14.4027C14.0905 14.4027 14.7539 14.1279 15.2429 13.6388L16.7396 12.1422C17.8838 10.9994 19.4352 10.3571 21.0523 10.3571C22.6694 10.3571 24.2204 10.999 25.3646 12.1417L31.964 18.7411C32.8282 19.6053 33.3136 20.7773 33.3136 21.9994C33.3136 23.2215 32.8282 24.3935 31.964 25.2576C31.0999 26.1218 29.9279 26.6073 28.7058 26.6073C27.4837 26.6073 26.3117 26.1218 25.4475 25.2576L21.1956 21.0057C20.8051 20.6152 20.8051 19.982 21.1956 19.5915C21.5861 19.201 22.2193 19.201 22.6098 19.5915L26.8617 23.8434C27.3508 24.3325 28.0141 24.6073 28.7058 24.6073C29.3974 24.6073 30.0607 24.3325 30.5498 23.8434C31.0389 23.3544 31.3136 22.691 31.3136 21.9994C31.3136 21.3077 31.0389 20.6444 30.5498 20.1554L23.9513 13.5568C23.1821 12.7886 22.1394 12.3571 21.0523 12.3571C19.9652 12.3571 18.9226 12.7886 18.1534 13.5568L16.6571 15.0531C15.793 15.9172 14.621 16.4027 13.3989 16.4027C12.1768 16.4027 11.0048 15.9172 10.1406 15.0531C9.27649 14.1889 8.79102 13.0169 8.79102 11.7948C8.79102 10.5727 9.27649 9.40069 10.1406 8.53655L14.9207 3.75647C16.6298 2.05188 18.8586 0.966028 21.2543 0.670807C23.6497 0.375614 26.0752 0.887769 28.1469 2.1262L28.9504 2.60489C29.4611 2.91316 30.0683 3.02029 30.6537 2.90546L30.6555 2.9051L33.6109 2.31062C34.1523 2.2017 34.6795 2.55234 34.7884 3.09378C34.8973 3.63522 34.5467 4.16243 34.0053 4.27134L31.0459 4.86661L31.042 4.86739C29.9692 5.07872 28.8561 4.88315 27.9196 4.31884L27.9169 4.3172L27.1211 3.84313Z" fill="#834934"/>
<path fill-rule="evenodd" clip-rule="evenodd" d="M33.7177 0.594747C34.2677 0.544746 34.7541 0.950088 34.8041 1.5001L36.5048 20.2085C36.5303 20.4883 36.4368 20.7659 36.2474 20.9734C36.0579 21.1809 35.7899 21.2991 35.509 21.2991H32.1074C31.5551 21.2991 31.1074 20.8513 31.1074 20.2991C31.1074 19.7468 31.5551 19.2991 32.1074 19.2991H34.4139L32.8123 1.68118C32.7623 1.13116 33.1676 0.644749 33.7177 0.594747Z" fill="#834934"/>
<path fill-rule="evenodd" clip-rule="evenodd" d="M3.28349 0.594747C3.83351 0.644749 4.23885 1.13116 4.18885 1.68118L2.53049 19.9231L13.2543 30.6469C13.7433 31.136 14.4067 31.4107 15.0983 31.4107C15.79 31.4107 16.4533 31.136 16.9424 30.6469C17.4314 30.1579 17.7062 29.4945 17.7062 28.8029C17.7062 28.1112 17.4314 27.4479 16.9424 26.9588C16.5518 26.5683 16.5518 25.9352 16.9424 25.5446C17.3329 25.1541 17.966 25.1541 18.3566 25.5446C19.2207 26.4088 19.7062 27.5808 19.7062 28.8029C19.7062 30.025 19.2207 31.197 18.3566 32.0611C17.4924 32.9253 16.3204 33.4107 15.0983 33.4107C13.8762 33.4107 12.7042 32.9253 11.8401 32.0611L0.785085 21.0062C0.57523 20.7963 0.46943 20.5041 0.496299 20.2085L2.19706 1.5001C2.24707 0.950088 2.73348 0.544746 3.28349 0.594747Z" fill="#834934"/>
<path fill-rule="evenodd" clip-rule="evenodd" d="M2.19531 3.29126C2.19531 2.73898 2.64303 2.29126 3.19531 2.29126H16.8014C17.3537 2.29126 17.8014 2.73898 17.8014 3.29126C17.8014 3.84354 17.3537 4.29126 16.8014 4.29126H3.19531C2.64303 4.29126 2.19531 3.84354 2.19531 3.29126Z" fill="#834934"/>
</svg>
