<svg width="114" height="49" viewBox="0 0 114 49" fill="none" xmlns="http://www.w3.org/2000/svg">
<path d="M25.8006 33.2582C24.3864 34.9462 22.3791 36.0867 20.0981 36.3832L23.2915 40.9681H19.7787C18.4329 40.9681 17.1783 40.3066 16.4256 39.2117L11.2705 31.7983H18.8435C20.4402 31.7983 21.9001 30.9544 22.6756 29.6542C23.0178 29.0839 23.2459 28.4224 23.2687 27.6925C23.3827 25.2518 21.4211 23.176 18.9575 23.176H9.24035C7.98578 23.176 6.9137 22.2636 6.84527 21.0319C6.75403 19.6861 7.82611 18.5684 9.14911 18.5684H18.7751C23.6337 18.5684 27.7623 22.3777 27.8992 27.2363C27.9676 29.5173 27.1692 31.6387 25.8006 33.2582Z" fill="url(#paint0_linear_198_8368)"/>
<path d="M2.10262 14.9189C3.51686 13.2309 5.52416 12.0904 7.8052 11.7939L4.61175 7.20898H8.12454C9.47035 7.20898 10.7249 7.87048 11.4777 8.96538L16.6556 16.3559H9.08257C7.48585 16.3559 6.02599 17.1999 5.25044 18.5001C4.90829 19.0703 4.68018 19.7318 4.65737 20.4618C4.52051 22.9481 6.50501 25.001 8.94571 25.001H18.6629C19.849 25.001 20.8983 25.845 21.0352 27.0083C21.2177 28.4226 20.1228 29.6315 18.7313 29.6315H9.12819C4.2696 29.6315 0.140932 25.8222 0.00407026 20.9636C-0.0643607 18.6598 0.734 16.5612 2.10262 14.9189Z" fill="url(#paint1_linear_198_8368)"/>
<path d="M34.9291 12.2871H42.8442C47.1782 12.2871 49.3908 15.4349 49.3908 18.6284C49.3908 21.1603 48.1134 23.4185 45.764 24.3994L49.7329 29.9879H45.3077L41.7493 24.9696H38.7156V30.0107H34.9062V12.2871H34.9291ZM38.7384 21.6621H42.6389C44.2813 21.6621 45.6727 20.362 45.6727 18.6284C45.6727 16.8492 44.2813 15.5946 42.6389 15.5946H38.7384V21.6621Z" fill="#242424"/>
<path d="M51.375 23.0083C51.375 19.2902 53.8385 15.7546 58.0584 15.7775C62.6661 15.8003 65.8824 19.4271 64.5822 24.605H55.3212C55.5037 25.8368 56.9863 27.0457 58.7427 27.0457C59.7008 27.0686 61.3659 26.6352 61.8221 25.9737L64.5594 28.0722C63.1679 29.6461 60.9097 30.262 58.3778 30.262C54.1807 30.2848 51.375 26.5895 51.375 23.0083ZM61.0238 21.48C61.1606 20.5448 60.4079 18.9709 58.1725 18.9709C56.2564 18.9709 55.2984 20.3623 55.2984 21.48H61.0238Z" fill="#242424"/>
<path d="M66.8867 22.8712C66.8867 18.7882 69.8292 15.9141 73.7754 15.9141C77.676 15.9141 80.6641 18.7882 80.6641 22.8712V30.0108H77.0373V22.8712C77.0373 20.7727 75.7143 19.5409 73.7754 19.5409C71.8366 19.5409 70.5136 20.7727 70.5136 22.8712V30.0108H66.8867V22.8712Z" fill="#242424"/>
<path d="M89.1266 19.7919H82.6712V16.165H95.9925L89.4231 26.3841H95.924V30.0109H82.6484L89.1266 19.7919Z" fill="#242424"/>
<path d="M99.2096 32.3144C102.266 32.9303 103.977 30.3299 103.042 28.4594L98.0234 16.1875H101.856L105.574 25.1976L109.292 16.1875H113.124L107.444 30.0334C105.756 33.683 103.772 36.4887 99.1868 35.7816V32.3144H99.2096Z" fill="#242424"/>
<defs>
<linearGradient id="paint0_linear_198_8368" x1="8.90417" y1="11.8807" x2="30.9559" y2="45.9027" gradientUnits="userSpaceOnUse">
<stop stop-color="#FFECD1"/>
<stop offset="1" stop-color="#78290F"/>
</linearGradient>
<linearGradient id="paint1_linear_198_8368" x1="21.8222" y1="40.6479" x2="-0.229599" y2="6.62625" gradientUnits="userSpaceOnUse">
<stop stop-color="#78290F"/>
<stop offset="1" stop-color="#FFECD1"/>
</linearGradient>
</defs>
</svg>
