<svg width="29" height="30" viewBox="0 0 29 30" fill="none" xmlns="http://www.w3.org/2000/svg">
<path fill-rule="evenodd" clip-rule="evenodd" d="M4.29167 0.875C3.2529 0.875 2.25668 1.28765 1.52216 2.02216C0.787647 2.75668 0.375 3.7529 0.375 4.79167V25.2083C0.375 26.2471 0.787647 27.2433 1.52216 27.9778C2.25668 28.7124 3.2529 29.125 4.29167 29.125H24.7083C25.7471 29.125 26.7433 28.7124 27.4778 27.9778C28.2124 27.2433 28.625 26.2471 28.625 25.2083V9.16667C28.625 8.90145 28.5196 8.6471 28.3321 8.45956L21.0404 1.16789C20.8529 0.980357 20.5986 0.875 20.3333 0.875H4.29167ZM17.875 2.875H4.29167C3.78333 2.875 3.29582 3.07693 2.93638 3.43638C2.57693 3.79582 2.375 4.28333 2.375 4.79167V25.2083C2.375 25.7167 2.57693 26.2042 2.93638 26.5636C3.29582 26.9231 3.78334 27.125 4.29167 27.125H24.7083C25.2167 27.125 25.7042 26.9231 26.0636 26.5636C26.4231 26.2042 26.625 25.7167 26.625 25.2083V11.625H21.7917C20.7529 11.625 19.7567 11.2124 19.0222 10.4778C18.2876 9.74332 17.875 8.7471 17.875 7.70833V2.875ZM26.625 9.625H21.7917C21.2833 9.625 20.7958 9.42307 20.4364 9.06362C20.0769 8.70418 19.875 8.21666 19.875 7.70833V2.875H19.9191L26.625 9.58088V9.625Z" fill="#AF5801"/>
</svg>
