<svg width="36" height="26" viewBox="0 0 36 26" fill="none" xmlns="http://www.w3.org/2000/svg">
<path fill-rule="evenodd" clip-rule="evenodd" d="M8.69031 2.15283C5.01143 2.15283 2.07422 5.09005 2.07422 8.76892V21.4624C2.07422 22.0949 2.32549 22.7015 2.77275 23.1488C3.22001 23.5961 3.82663 23.8473 4.45915 23.8473H31.5386C32.1711 23.8473 32.7777 23.5961 33.225 23.1488C33.6722 22.7015 33.9235 22.0949 33.9235 21.4624V7.92269C33.9235 4.75155 31.3248 2.15283 28.1536 2.15283H8.69031ZM0.0742188 8.76892C0.0742188 3.98548 3.90686 0.152832 8.69031 0.152832H28.1536C32.4294 0.152832 35.9235 3.64698 35.9235 7.92269V21.4624C35.9235 22.6254 35.4615 23.7407 34.6392 24.563C33.8169 25.3853 32.7015 25.8473 31.5386 25.8473H4.45915C3.29619 25.8473 2.18087 25.3853 1.35853 24.563C0.536201 23.7407 0.0742188 22.6254 0.0742188 21.4624V8.76892Z" fill="#834934"/>
<path fill-rule="evenodd" clip-rule="evenodd" d="M22.0762 7.92285C22.0762 7.37057 22.5239 6.92285 23.0762 6.92285H28.1536C28.7058 6.92285 29.1536 7.37057 29.1536 7.92285V11.3078C29.1536 11.8601 28.7058 12.3078 28.1536 12.3078C27.6013 12.3078 27.1536 11.8601 27.1536 11.3078V8.92285H23.0762C22.5239 8.92285 22.0762 8.47514 22.0762 7.92285Z" fill="#834934"/>
<path fill-rule="evenodd" clip-rule="evenodd" d="M7.69141 1.15283C7.69141 0.600547 8.13912 0.152832 8.69141 0.152832C13.4749 0.152832 17.3075 3.98548 17.3075 8.76892V21.4624C17.3075 22.6254 16.8455 23.7407 16.0232 24.563C15.2008 25.3853 14.0855 25.8473 12.9226 25.8473C12.3703 25.8473 11.9226 25.3996 11.9226 24.8473C11.9226 24.295 12.3703 23.8473 12.9226 23.8473C13.5551 23.8473 14.1617 23.5961 14.609 23.1488C15.0562 22.7015 15.3075 22.0949 15.3075 21.4624V8.76892C15.3075 5.09005 12.3703 2.15283 8.69141 2.15283C8.13912 2.15283 7.69141 1.70512 7.69141 1.15283Z" fill="#834934"/>
<path fill-rule="evenodd" clip-rule="evenodd" d="M6.8457 9.61523C6.8457 9.06295 7.29342 8.61523 7.8457 8.61523H9.53817C10.0905 8.61523 10.5382 9.06295 10.5382 9.61523C10.5382 10.1675 10.0905 10.6152 9.53817 10.6152H7.8457C7.29342 10.6152 6.8457 10.1675 6.8457 9.61523Z" fill="#834934"/>
</svg>
