<svg width="20" height="20" viewBox="0 0 20 20" fill="none" xmlns="http://www.w3.org/2000/svg">
<path d="M19 0C19.5522 5.4086e-05 20 0.447749 20 1V6C20 6.26519 19.8945 6.5195 19.707 6.70703C19.5195 6.89454 19.2651 6.99997 19 7H13.9999C13.4477 7 12.9999 6.55228 12.9999 6C12.9999 5.44772 13.4477 5 13.9999 5H16.5859L16.0468 4.46094L15.7353 4.1748C14.147 2.78618 12.1132 2.00003 9.99995 2C8.41773 2 6.87119 2.46961 5.55561 3.34863C4.2401 4.22764 3.21483 5.47678 2.60932 6.93848C2.00386 8.40021 1.84465 10.0088 2.15327 11.5605C2.46195 13.1124 3.22391 14.5384 4.34272 15.6572C5.46154 16.776 6.88758 17.538 8.4394 17.8467C9.99115 18.1553 11.5998 17.9961 13.0615 17.3906C14.5232 16.7851 15.7723 15.7598 16.6513 14.4443C17.5303 13.1288 18 11.5822 18 10C18 9.44772 18.4477 9 19 9C19.5522 9.00005 20 9.44775 20 10C20 11.9778 19.4132 13.9112 18.3144 15.5557C17.2156 17.2001 15.6542 18.4824 13.8271 19.2393C11.9999 19.9961 9.98856 20.1934 8.04878 19.8076C6.10911 19.4217 4.3271 18.4697 2.92866 17.0713C1.53021 15.6728 0.578226 13.8909 0.192332 11.9512C-0.19352 10.0114 0.00381535 8.00011 0.760692 6.17285C1.51756 4.34568 2.79988 2.78433 4.44429 1.68555C6.08876 0.586764 8.02217 7.54116e-07 9.99995 0C12.6115 2.50626e-05 15.1093 0.971595 17.0517 2.66992L17.4326 3.01953L17.4472 3.0332L18 3.58594V1C18 0.447716 18.4477 4.2136e-07 19 0Z" fill="#747474"/>
</svg>
