<svg xmlns="http://www.w3.org/2000/svg" xmlns:xlink="http://www.w3.org/1999/xlink" viewBox="0 0 3000 3000" width="3000" height="3000" preserveAspectRatio="xMidYMid meet" style="width: 100%; height: 100%; transform: translate3d(0px, 0px, 0px); content-visibility: visible;"><defs><clipPath id="__lottie_element_2"><rect width="3000" height="3000" x="0" y="0"></rect></clipPath><clipPath id="__lottie_element_4"><path d="M0,0 L3000,0 L3000,3000 L0,3000z"></path></clipPath><clipPath id="__lottie_element_8"><path d="M0,0 L3000,0 L3000,3000 L0,3000z"></path></clipPath><clipPath id="__lottie_element_12"><path d="M0,0 L3000,0 L3000,3000 L0,3000z"></path></clipPath><clipPath id="__lottie_element_16"><path d="M0,0 L3000,0 L3000,3000 L0,3000z"></path></clipPath><clipPath id="__lottie_element_20"><path d="M0,0 L3000,0 L3000,3000 L0,3000z"></path></clipPath><clipPath id="__lottie_element_24"><path d="M0,0 L3000,0 L3000,3000 L0,3000z"></path></clipPath><clipPath id="__lottie_element_28"><path d="M0,0 L3000,0 L3000,3000 L0,3000z"></path></clipPath><g id="__lottie_element_34"><g transform="matrix(0,0,0,0,1494.6669921875,1500)" opacity="1" style="display: block;"><g opacity="1" transform="matrix(0.5919399857521057,0,0,0.5919399857521057,0,0)"><path fill="rgb(108,203,74)" fill-opacity="1" d=" M0,-1500 C827.8499755859375,-1500 1500,-827.8499755859375 1500,0 C1500,827.8499755859375 827.8499755859375,1500 0,1500 C-827.8499755859375,1500 -1500,827.8499755859375 -1500,0 C-1500,-827.8499755859375 -827.8499755859375,-1500 0,-1500z"></path></g></g></g><filter id="__lottie_element_43" filterUnits="objectBoundingBox" x="0%" y="0%" width="100%" height="100%"><feComponentTransfer in="SourceGraphic"><feFuncA type="table" tableValues="1.0 0.0"></feFuncA></feComponentTransfer></filter><mask id="__lottie_element_34_2" mask-type="alpha"><g filter="url(#__lottie_element_43)"><rect width="3000" height="3000" x="0" y="0" fill="#ffffff" opacity="0"></rect><use xlink:href="#__lottie_element_34"></use></g></mask></defs><g clip-path="url(#__lottie_element_2)"><g clip-path="url(#__lottie_element_4)" transform="matrix(1,0,0,1,0,0)" opacity="0" style="display: block;"><g transform="matrix(0.05000000074505806,0,0,0.05000000074505806,1504,1140)" opacity="1" style="display: block;"><g opacity="1" transform="matrix(1,0,0,1,0,0)"><path fill="rgb(108,203,75)" fill-opacity="1" d=" M0,-1500 C827.8499755859375,-1500 1500,-827.8499755859375 1500,0 C1500,827.8499755859375 827.8499755859375,1500 0,1500 C-827.8499755859375,1500 -1500,827.8499755859375 -1500,0 C-1500,-827.8499755859375 -827.8499755859375,-1500 0,-1500z"></path></g></g></g><g clip-path="url(#__lottie_element_8)" transform="matrix(0.6225146651268005,0.782608151435852,-0.782608151435852,0.6225146651268005,1740.1402587890625,-607.68408203125)" opacity="0" style="display: block;"><g transform="matrix(0.05000000074505806,0,0,0.05000000074505806,1504,1140)" opacity="1" style="display: block;"><g opacity="1" transform="matrix(1,0,0,1,0,0)"><path fill="rgb(108,203,75)" fill-opacity="1" d=" M0,-1500 C827.8499755859375,-1500 1500,-827.8499755859375 1500,0 C1500,827.8499755859375 827.8499755859375,1500 0,1500 C-827.8499755859375,1500 -1500,827.8499755859375 -1500,0 C-1500,-827.8499755859375 -827.8499755859375,-1500 0,-1500z"></path></g></g></g><g clip-path="url(#__lottie_element_12)" transform="matrix(-0.22495105862617493,0.9743700623512268,-0.9743700623512268,-0.22495105862617493,3298.981689453125,375.8714599609375)" opacity="0" style="display: block;"><g transform="matrix(0.05000000074505806,0,0,0.05000000074505806,1504,1140)" opacity="1" style="display: block;"><g opacity="1" transform="matrix(1,0,0,1,0,0)"><path fill="rgb(108,203,75)" fill-opacity="1" d=" M0,-1500 C827.8499755859375,-1500 1500,-827.8499755859375 1500,0 C1500,827.8499755859375 827.8499755859375,1500 0,1500 C-827.8499755859375,1500 -1500,827.8499755859375 -1500,0 C-1500,-827.8499755859375 -827.8499755859375,-1500 0,-1500z"></path></g></g></g><g clip-path="url(#__lottie_element_16)" transform="matrix(-0.9170600771903992,0.39874908328056335,-0.39874908328056335,-0.9170600771903992,3473.7138671875,2277.466552734375)" opacity="0" style="display: block;"><g transform="matrix(0.05000000074505806,0,0,0.05000000074505806,1504,1140)" opacity="1" style="display: block;"><g opacity="1" transform="matrix(1,0,0,1,0,0)"><path fill="rgb(108,203,75)" fill-opacity="1" d=" M0,-1500 C827.8499755859375,-1500 1500,-827.8499755859375 1500,0 C1500,827.8499755859375 827.8499755859375,1500 0,1500 C-827.8499755859375,1500 -1500,827.8499755859375 -1500,0 C-1500,-827.8499755859375 -827.8499755859375,-1500 0,-1500z"></path></g></g></g><g clip-path="url(#__lottie_element_20)" transform="matrix(-0.882947564125061,-0.4694715738296509,0.4694715738296509,-0.882947564125061,2120.214111328125,3528.62890625)" opacity="0" style="display: block;"><g transform="matrix(0.05000000074505806,0,0,0.05000000074505806,1504,1140)" opacity="1" style="display: block;"><g opacity="1" transform="matrix(1,0,0,1,0,0)"><path fill="rgb(108,203,75)" fill-opacity="1" d=" M0,-1500 C827.8499755859375,-1500 1500,-827.8499755859375 1500,0 C1500,827.8499755859375 827.8499755859375,1500 0,1500 C-827.8499755859375,1500 -1500,827.8499755859375 -1500,0 C-1500,-827.8499755859375 -827.8499755859375,-1500 0,-1500z"></path></g></g></g><g clip-path="url(#__lottie_element_24)" transform="matrix(-0.18223552405834198,-0.9832549095153809,0.9832549095153809,-0.18223552405834198,298.470947265625,3248.235595703125)" opacity="0" style="display: block;"><g transform="matrix(0.05000000074505806,0,0,0.05000000074505806,1504,1140)" opacity="1" style="display: block;"><g opacity="1" transform="matrix(1,0,0,1,0,0)"><path fill="rgb(108,203,75)" fill-opacity="1" d=" M0,-1500 C827.8499755859375,-1500 1500,-827.8499755859375 1500,0 C1500,827.8499755859375 827.8499755859375,1500 0,1500 C-827.8499755859375,1500 -1500,827.8499755859375 -1500,0 C-1500,-827.8499755859375 -827.8499755859375,-1500 0,-1500z"></path></g></g></g><g clip-path="url(#__lottie_element_28)" transform="matrix(0.649448037147522,-0.760405957698822,0.760405957698822,0.649448037147522,-614.781005859375,1666.4368896484375)" opacity="0" style="display: block;"><g transform="matrix(0.05000000074505806,0,0,0.05000000074505806,1504,1140)" opacity="1" style="display: block;"><g opacity="1" transform="matrix(1,0,0,1,0,0)"><path fill="rgb(108,203,75)" fill-opacity="1" d=" M0,-1500 C827.8499755859375,-1500 1500,-827.8499755859375 1500,0 C1500,827.8499755859375 827.8499755859375,1500 0,1500 C-827.8499755859375,1500 -1500,827.8499755859375 -1500,0 C-1500,-827.8499755859375 -827.8499755859375,-1500 0,-1500z"></path></g></g></g><g mask="url(#__lottie_element_34_2)" style="display: block;"><g transform="matrix(0.697466254234314,0,0,0.697466254234314,1494.6669921875,1500)" opacity="1"><g opacity="1" transform="matrix(0.5919399857521057,0,0,0.5919399857521057,0,0)"><path fill="rgb(108,203,74)" fill-opacity="1" d=" M0,-1500 C827.8499755859375,-1500 1500,-827.8499755859375 1500,0 C1500,827.8499755859375 827.8499755859375,1500 0,1500 C-827.8499755859375,1500 -1500,827.8499755859375 -1500,0 C-1500,-827.8499755859375 -827.8499755859375,-1500 0,-1500z"></path></g></g></g><g transform="matrix(0,0,0,0,1494.6669921875,1500)" opacity="1" style="display: block;"><g opacity="1" transform="matrix(0.5919399857521057,0,0,0.5919399857521057,0,0)"><path fill="rgb(108,203,74)" fill-opacity="1" d=" M0,-1500 C827.8499755859375,-1500 1500,-827.8499755859375 1500,0 C1500,827.8499755859375 827.8499755859375,1500 0,1500 C-827.8499755859375,1500 -1500,827.8499755859375 -1500,0 C-1500,-827.8499755859375 -827.8499755859375,-1500 0,-1500z"></path></g><g opacity="1" transform="matrix(1,0,0,1,0,0)"><path fill="rgb(108,203,74)" fill-opacity="1" d="M0 0"></path></g></g><g transform="matrix(1,0,0,1,1506,1505)" opacity="1" style="display: block;"><g opacity="1" transform="matrix(1,0,0,1,0,0)"><path stroke-linecap="round" stroke-linejoin="round" fill-opacity="0" stroke="rgb(255,255,255)" stroke-opacity="0.9" stroke-width="100" d="M0 0"></path></g></g></g></svg>