<svg width="17" height="17" viewBox="0 0 17 17" fill="none" xmlns="http://www.w3.org/2000/svg">
<path fill-rule="evenodd" clip-rule="evenodd" d="M7.81132 0.627013C7.33373 0.678063 6.56252 0.858023 6.05615 1.03654C3.37155 1.983 1.42499 4.21129 0.815761 7.03527C0.655163 7.77972 0.655163 9.42272 0.815761 10.1672C1.50805 13.3762 3.91038 15.7767 7.12179 16.4685C7.8668 16.629 9.51102 16.629 10.256 16.4685C13.0545 15.8657 15.2839 13.9381 16.2398 11.2947C16.954 9.31962 16.8208 6.92941 15.8934 5.08278C15.1149 3.53236 13.7616 2.18 12.21 1.4021C10.9763 0.783483 9.22863 0.475554 7.81132 0.627013ZM9.47247 1.78049C11.2355 1.99635 12.9295 2.92358 14.0137 4.2661C14.5357 4.9124 15.0798 5.95608 15.2976 6.72884C16.2059 9.95057 14.6529 13.3628 11.6235 14.8012C8.27043 16.3933 4.23848 15.0118 2.57789 11.7018C1.55732 9.66757 1.55732 7.53487 2.57789 5.50064C3.24342 4.17409 4.25766 3.16041 5.58601 2.49444C6.88083 1.84526 8.12895 1.61594 9.47247 1.78049ZM12.4813 5.21764C12.4124 5.24714 11.1436 6.48512 9.66184 7.96877L6.96765 10.6662L5.9279 9.63375C4.77274 8.48666 4.68862 8.4415 4.3058 8.76339C4.14802 8.896 4.11292 8.97242 4.11292 9.18301C4.11292 9.43431 4.1432 9.47064 5.38229 10.7076C6.19305 11.5169 6.7144 11.9903 6.82523 12.0176C6.92076 12.0412 7.07741 12.028 7.17344 11.9883C7.43992 11.8779 13.1855 6.10096 13.2364 5.89212C13.3013 5.62641 13.2185 5.41476 12.9968 5.27971C12.7786 5.14673 12.6761 5.13439 12.4813 5.21764Z" fill="#747474"/>
</svg>
