<svg width="17" height="17" viewBox="0 0 17 17" fill="none" xmlns="http://www.w3.org/2000/svg">
<path fill-rule="evenodd" clip-rule="evenodd" d="M8.09266 0.603923C6.90694 0.71748 6.02504 0.968261 5.02661 1.47579C3.84386 2.07697 2.78254 3.02763 2.00867 4.17898C1.68101 4.66647 1.28061 5.48945 1.08835 6.07055C0.933174 6.53959 0.809906 7.07339 0.734569 7.60256C0.682227 7.97027 0.682227 9.20457 0.734569 9.57229C0.865658 10.4932 1.10922 11.2999 1.48976 12.0735C1.92029 12.9488 2.34199 13.5368 3.03821 14.2326C3.72682 14.9207 4.32439 15.3504 5.16739 15.7637C5.75561 16.052 6.13539 16.1924 6.73171 16.3419C8.29646 16.7341 9.86581 16.6589 11.3946 16.1184C11.858 15.9546 12.6669 15.5494 13.0828 15.2729C14.0178 14.6512 14.8761 13.7718 15.4886 12.8083C15.714 12.4538 16.0761 11.7058 16.2239 11.2898C16.9588 9.22008 16.8309 6.9987 15.865 5.05776C15.4752 4.27447 15.0412 3.66057 14.4318 3.03047C13.7562 2.33169 13.0934 1.84957 12.2068 1.41179C11.2801 0.954222 10.4166 0.709976 9.39104 0.615273C9.07229 0.585852 8.34767 0.579505 8.09266 0.603923ZM12.6205 5.85497C12.8665 5.99748 12.989 6.31633 12.9105 6.60975C12.8733 6.74851 12.7206 6.90875 10.6146 9.01958C9.23495 10.4024 8.30997 11.3061 8.23345 11.3459C8.07257 11.4297 7.80551 11.4351 7.65465 11.3577C7.50348 11.2801 5.25784 9.04046 5.17481 8.88445C5.04556 8.64164 5.1077 8.28821 5.31337 8.09649C5.48557 7.93598 5.83523 7.88007 6.03715 7.98078C6.09222 8.00826 6.54195 8.43369 7.03656 8.92619L7.93588 9.82166L9.94618 7.81682C12.1319 5.63708 12.0279 5.72603 12.3476 5.76239C12.425 5.77121 12.5479 5.81286 12.6205 5.85497Z" fill="#834934"/>
</svg>
