<svg width="50" height="31" viewBox="0 0 50 31" fill="none" xmlns="http://www.w3.org/2000/svg">
<path d="M0 4.85547C0 2.64633 1.79086 0.855469 4 0.855469H46C48.2091 0.855469 50 2.64633 50 4.85547V26.8555C50 29.0646 48.2091 30.8555 46 30.8555H4C1.79086 30.8555 0 29.0646 0 26.8555V4.85547Z" fill="white"/>
<path d="M21.275 11.0322L17.2219 20.7031H14.5775L12.5845 12.9852C12.462 12.5092 12.3575 12.3364 11.9885 12.1338C11.3861 11.8088 10.3941 11.503 9.51953 11.3121L9.58016 11.0309H13.8358C14.3788 11.0309 14.8665 11.3934 14.989 12.0164L16.0429 17.6136L18.6461 11.0309L21.275 11.0322ZM31.6348 17.544C31.6464 14.9937 28.1054 14.8544 28.1312 13.7128C28.1377 13.3645 28.4679 12.9955 29.1916 12.9027C29.5502 12.8549 30.5383 12.8201 31.6593 13.3335L32.0979 11.2837C31.4955 11.0644 30.7202 10.8555 29.7579 10.8555C27.285 10.8555 25.5448 12.1699 25.5306 14.052C25.5139 15.4439 26.7729 16.2205 27.721 16.6836C28.6949 17.1583 29.0213 17.4601 29.0174 17.8858C29.011 18.5347 28.2396 18.8185 27.5211 18.8314C26.2633 18.8507 25.5332 18.4908 24.9502 18.2199L24.4974 20.3406C25.0804 20.6089 26.1614 20.8411 27.2798 20.8553C29.9075 20.8553 31.627 19.5537 31.6348 17.544ZM38.1646 20.7018H40.4788L38.46 11.0309H36.3238C35.8439 11.0309 35.4389 11.3108 35.2583 11.7404L31.5071 20.7018H34.1334L34.6546 19.257H37.864L38.1646 20.7018ZM35.3731 17.2757L36.6902 13.6444L37.4474 17.2757H35.3731ZM24.8495 11.0322L22.7791 20.7031H20.2779L22.3483 11.0322H24.8495Z" fill="#012258"/>
</svg>
