<svg width="28" height="19" viewBox="0 0 28 19" fill="none" xmlns="http://www.w3.org/2000/svg">
<path d="M24.3629 0.112793C17.459 0.112793 10.555 0.112793 3.64502 0.112793C1.74958 0.112793 0.417969 1.43241 0.417969 3.32785C0.417969 7.43664 0.417969 11.5454 0.417969 15.6482C0.417969 17.5557 1.74958 18.8873 3.65702 18.8873C6.24226 18.8873 8.8275 18.8873 11.4127 18.8873H17.0811C18.1068 18.8873 19.1385 18.8873 20.1642 18.8873C21.5678 18.8873 22.9653 18.8873 24.3689 18.8873C25.2747 18.8873 26.0964 18.5694 26.6783 17.9875C27.2601 17.4057 27.584 16.59 27.584 15.6842C27.584 11.5694 27.584 7.44864 27.584 3.33385C27.59 1.4384 26.2644 0.112793 24.3629 0.112793ZM25.6106 9.2781C25.6106 11.4015 25.6106 13.5249 25.6106 15.6422C25.6106 16.458 25.1607 16.9019 24.3509 16.9019C17.453 16.9019 10.561 16.9019 3.66302 16.9019C2.84725 16.9019 2.39739 16.458 2.39739 15.6482C2.39739 13.5249 2.39739 11.4015 2.39739 9.2841V6.71685H25.6106V9.2781ZM25.6106 4.34755C25.6106 4.47351 25.6106 4.59348 25.6106 4.71944H2.42738C2.42738 4.56948 2.42138 4.41953 2.41538 4.26957C2.40339 3.81371 2.39139 3.38183 2.44537 2.94996C2.51135 2.44011 2.94922 2.09221 3.53705 2.09221C10.9269 2.09221 17.7709 2.09221 24.4589 2.09221C25.1187 2.09221 25.5986 2.57207 25.6046 3.22588C25.6166 3.59777 25.6106 3.96366 25.6106 4.34755Z" fill="#fff"/>
<path d="M5.81721 14.6939C5.89519 14.6939 5.97317 14.6879 6.06314 14.6819H6.15311C6.2191 14.6819 6.29107 14.6819 6.35705 14.6819C7.02886 14.6759 7.43674 14.2741 7.43674 13.6083C7.43674 13.5483 7.43674 13.4883 7.43674 13.4283C7.43674 13.2304 7.44274 13.0264 7.43074 12.8225C7.40675 12.3006 6.99887 11.8928 6.48302 11.8688C6.1891 11.8568 5.88319 11.8568 5.57129 11.8688C5.04344 11.8868 4.64756 12.2886 4.61757 12.8165C4.61157 12.8885 4.61757 12.9544 4.61757 13.0204C4.61757 13.0924 4.61757 13.1644 4.61757 13.2304C4.57558 13.7882 4.66555 14.1601 4.90548 14.394C5.10342 14.598 5.39734 14.6939 5.81721 14.6939Z" fill="#fff"/>
</svg>
